<?xml version="1.0" encoding="UTF-8"?>
<svg version="1.1" xmlns="http://www.w3.org/2000/svg" width="858" height="957">
<path d="M0 0 C280.5 0 561 0 850 0 C850 13.5 850 13.5 849.52550983 18.87007451 C849.41943696 20.09967906 849.31336409 21.32928361 849.20407689 22.59614891 C849.08535532 23.91067057 848.96663376 25.22519223 848.84431458 26.57954788 C848.71766719 28.02434894 848.59148092 29.46919047 848.46570957 30.91406804 C848.1200076 34.87020008 847.76780227 38.82572969 847.41449867 42.7811891 C847.03083142 47.08976664 846.65329343 51.398882 846.27496815 55.70793128 C845.6114993 63.25507363 844.94414148 70.80186419 844.27421951 78.34843636 C843.27809195 89.56986747 842.28800207 100.79182559 841.2991409 112.01389908 C839.63544686 130.89235023 837.96686851 149.77036668 836.29550171 168.64813995 C834.64076241 187.33829063 832.98819695 206.02863142 831.33853149 224.71923065 C831.23594183 225.88155072 831.13335217 227.0438708 831.02765373 228.24141269 C830.50665956 234.14430015 829.98570419 240.04719103 829.46476376 245.95008323 C825.77530711 287.75534253 822.08098124 329.56017026 818.38378906 371.36474609 C814.79212929 411.97618203 811.20267682 452.58781207 807.61621094 493.19970703 C807.5056508 494.45164163 807.39509066 495.70357622 807.28118022 496.99344823 C806.17088776 509.56594172 805.06064017 522.13843917 803.95042543 534.71093953 C801.68880854 560.32235097 799.42689225 585.93373597 797.16479492 611.54510498 C797.00878565 613.31144157 797.00878565 613.31144157 796.84962468 615.11346173 C789.90476535 693.74275107 782.95292716 772.37142371 776 851 C775.33930114 851.18523456 774.67860228 851.37046912 773.99788224 851.56131685 C767.64856501 853.3415193 761.29938788 855.12222053 754.95035266 856.90342852 C751.68937472 857.81827134 748.42833496 858.73289229 745.16720253 859.64718437 C722.55404769 865.98722069 699.96435702 872.4061984 677.39050865 878.88467407 C671.03299345 880.70879536 664.67482022 882.53061673 658.31660461 884.35229492 C648.17593053 887.25795285 638.03568083 890.16508859 627.89561635 893.07287312 C616.65355618 896.29662222 605.41112352 899.51907112 594.16860747 902.74123001 C590.82796697 903.69870425 587.48735365 904.65627331 584.14674568 905.61386108 C573.16461939 908.76177005 562.18206846 911.90818567 551.19869995 915.05175781 C546.89723989 916.28307061 542.5958242 917.51453832 538.29443359 918.74609375 C536.71380461 919.19860945 536.71380461 919.19860945 535.10124373 919.66026688 C521.44378115 923.57097847 507.79205571 927.50099659 494.1458807 931.45091248 C487.21330575 933.45739626 480.27877934 935.45709326 473.34369713 937.45489216 C467.84252348 939.040266 462.34407007 940.63464103 456.84756613 942.23612499 C453.50433323 943.20784556 450.15861826 944.17077983 446.81212592 945.13120842 C445.27938163 945.57304939 443.74768431 946.01854208 442.21717095 946.46805 C440.13342668 947.07954917 438.04629271 947.67776365 435.95783997 948.27294922 C434.79911283 948.6088205 433.64038568 948.94469177 432.4465456 949.29074097 C425.5156675 950.71703514 419.85149705 950.01200535 413.13929749 948.02256775 C412.38807108 947.80920019 411.63684467 947.59583263 410.86285383 947.37599939 C408.35748258 946.66164354 405.8567412 945.93228336 403.35571289 945.20288086 C401.54499153 944.68324409 399.73399991 944.16454828 397.92276192 943.64671516 C392.97635097 942.22967851 388.03380147 940.7995745 383.09178329 939.36730504 C377.81630508 937.84094372 372.53727943 936.32694972 367.25862122 934.81163025 C358.22216297 932.21586847 349.18784167 929.61278554 340.15496826 927.00457764 C326.07723491 922.93983268 311.9953321 918.88966409 297.91259766 914.84228516 C293.20426631 913.48895547 288.49595853 912.1355438 283.78765869 910.78210449 C282.62309694 910.44735509 281.45853518 910.11260568 280.25868368 909.76771235 C272.00823107 907.3959587 263.75835806 905.02219607 255.50872803 902.64758301 C217.17808105 891.61514559 178.82717475 880.65510176 140.46079654 869.7476266 C135.3407454 868.29195821 130.22096352 866.83534609 125.10134888 865.37814331 C118.33826981 863.45315952 111.57499699 861.52885872 104.81149864 859.60534859 C102.38242449 858.91452056 99.9533882 858.2235594 97.52439308 857.53245354 C94.27019442 856.60674433 91.01575581 855.68188419 87.76123047 854.75732422 C86.8177176 854.48879607 85.87420473 854.22026793 84.90210056 853.94360256 C84.04204379 853.69947659 83.18198702 853.45535063 82.29586792 853.2038269 C81.55682661 852.99377958 80.8177853 852.78373226 80.0563488 852.56731987 C78.04464745 852.01231765 76.0252946 851.50272316 74 851 C66.94189353 771.18198226 59.88508684 691.36384963 52.83520508 611.54510498 C52.7308845 610.36399187 52.62656392 609.18287875 52.51908211 607.96597433 C50.25198924 582.29795681 47.98513017 556.62991863 45.718512 530.96185918 C44.60698119 518.37447129 43.4953987 505.78708796 42.38378906 493.19970703 C42.2731707 491.94710312 42.16255234 490.69449921 42.04858191 489.4039376 C38.46231246 448.79454338 34.87263017 408.18545171 31.28118022 367.57651534 C27.5908925 325.84980383 23.90404351 284.12278988 20.22152857 242.39539165 C19.70154278 236.50333497 19.18151762 230.61128175 18.66146851 224.71923065 C18.55911537 223.55957647 18.45676223 222.3999223 18.35130749 221.20512708 C16.70279565 202.52875454 15.05065308 183.85270486 13.39715657 165.17677305 C11.73540379 146.40670791 10.07746694 127.63630884 8.42343545 108.86556169 C7.44031633 97.70998128 6.45426166 86.55466938 5.46401787 75.39971909 C4.80288822 67.94891906 4.14557109 60.49778906 3.49135327 53.04637897 C3.11844175 48.80024398 2.74387408 44.5542732 2.36465704 40.3086963 C2.01935029 36.44239784 1.67892953 32.57570066 1.34231557 28.70863596 C1.16368699 26.67083025 0.97992519 24.63347646 0.79592311 22.59614891 C0.68985024 21.36654436 0.58377737 20.13693981 0.47449017 18.87007451 C0.38214964 17.82500433 0.28980911 16.77993415 0.19467038 15.70319517 C-0.08013433 10.47561259 0 5.23480059 0 0 Z " fill="#0277BD" transform="translate(7,5)"/>
<path d="M0 0 C151.14 0 302.28 0 458 0 C457.41922703 14.51932431 456.83763682 29.00180554 455.91899872 43.49826908 C455.85119422 44.57373403 455.78338972 45.64919897 455.71353054 46.75725377 C455.64322659 47.87159098 455.57292265 48.98592819 455.50048828 50.1340332 C455.35025657 52.54848734 455.20027334 54.96295695 455.05051422 57.37744045 C454.6872019 63.22524816 454.32139188 69.07289563 453.95448087 74.92047855 C453.51863598 81.86933657 453.08618225 88.81840459 452.65390103 95.76748507 C451.86642228 108.42544896 451.07662312 121.08326694 450.28540039 133.74099731 C448.48918818 162.4772431 446.70090491 191.21398304 444.91242622 219.95071101 C444.57294828 225.40511214 444.23330886 230.8595032 443.89360809 236.31389046 C441.39127545 276.49422116 438.90748151 316.67560098 436.4609375 356.859375 C436.32868856 359.0306519 436.19643685 361.20192863 436.06418228 363.37320518 C434.91786295 382.19578953 433.77409541 401.01852702 432.63664734 419.84164965 C432.20886708 426.91960682 431.77967617 433.99747754 431.34941566 441.07528436 C431.06090936 445.82310552 430.77434292 450.5710377 430.48949516 455.3190797 C430.31875707 458.1575212 430.1461627 460.99584754 429.97303176 463.834144 C429.85833344 465.72361286 429.74588319 467.61321779 429.63353157 469.50282764 C429.2536584 475.69662425 428.7486943 481.83956464 428 488 C398.04422467 498.31831529 367.99519203 508.33970666 337.90332031 518.25335693 C331.13804857 520.48300899 324.37417613 522.71690367 317.61000061 524.94987869 C312.04199305 526.78733379 306.47305668 528.6218838 300.90209961 530.45037842 C298.6990426 531.1735839 296.49599897 531.8968301 294.29296875 532.62011719 C293.20604233 532.97693951 292.11911591 533.33376183 290.99925232 533.70139694 C284.15241223 535.95278501 277.31500406 538.2308407 270.48307037 540.52705193 C265.94073724 542.05183865 261.39466774 543.56527924 256.8480072 545.07710648 C254.69879775 545.79496497 252.5513396 546.51809072 250.40577698 547.24677658 C247.44869476 548.25055079 244.48604337 549.23585396 241.52148438 550.21728516 C240.65580338 550.51641941 239.79012238 550.81555367 238.89820862 551.12375259 C231.01260294 553.6962429 225.13103332 552.2456585 217.38085938 549.63696289 C216.64680563 549.39519444 215.91275188 549.15342598 215.15645409 548.90433121 C212.71700654 548.09933608 210.28042938 547.28598824 207.84375 546.47265625 C206.09629632 545.89425828 204.34866195 545.31640598 202.6008606 544.73905945 C197.88083507 543.17836301 193.1631894 541.61058507 188.44593048 540.04154968 C183.50881117 538.40074888 178.56954417 536.76644191 173.63037109 535.13183594 C167.52737503 533.11172755 161.42453549 531.09115461 155.32260132 529.06784058 C141.72452522 524.55940429 128.11928366 520.07329216 114.5078125 515.60546875 C112.71339368 515.01625741 110.91898038 514.42702924 109.12457275 513.83778381 C102.31887129 511.60316056 95.51309347 509.36877319 88.70629883 507.13748169 C69.74534737 500.92106117 50.82737928 494.61259529 32 488 C30.23271074 465.20915014 28.9526769 442.39441537 27.71289062 419.56982422 C27.43098518 414.38411568 27.14235925 409.19880413 26.8521328 404.01355553 C26.62568926 399.94863975 26.40376219 395.88348608 26.18303299 391.81825638 C26.07857558 389.90719544 25.97257489 387.99621808 25.86484909 386.08533859 C25.7142478 383.40527203 25.57006859 380.72492461 25.42724609 378.04443359 C25.38363449 377.29286987 25.34002289 376.54130615 25.29508972 375.76696777 C24.85031108 367.1577773 25 358.66069729 25 350 C58.33 350 91.66 350 126 350 C126.99 374.75 126.99 374.75 128 400 C128.33 403.96 128.66 407.92 129 412 C130.00207993 412.33746246 131.00415985 412.67492493 132.03660583 413.02261353 C141.55308968 416.22758357 151.06913229 419.4338607 160.58476162 422.64136696 C165.47499333 424.28970967 170.36537098 425.93761645 175.25610352 427.58447266 C179.98975809 429.17845488 184.72300138 430.77365307 189.4559803 432.36964035 C191.24761895 432.97356473 193.03939708 433.57707553 194.83132744 434.18013382 C196.54090708 434.75553463 198.25019842 435.3317928 199.95918369 435.90895653 C201.60392042 436.46314098 203.24985128 437.0137955 204.89702511 437.56069374 C208.85754508 438.8855969 212.7576421 440.28055025 216.6255188 441.8571167 C223.98131594 444.80637252 229.70574973 447.09656272 237.49554443 444.09585571 C238.32201477 443.73422333 239.14848511 443.37259094 240 443 C241.7250334 442.42724346 243.45449873 441.86767485 245.18798828 441.32104492 C246.98325974 440.71093216 248.7773242 440.09725895 250.5703125 439.48046875 C252.04691345 438.97709991 252.04691345 438.97709991 253.55334473 438.46356201 C256.74498673 437.374704 259.93499761 436.28115114 263.125 435.1875 C265.34022721 434.43076405 267.55556047 433.67433848 269.77099609 432.91821289 C274.29067115 431.37505143 278.80968716 429.82998341 283.328125 428.28320312 C289.68617679 426.10679309 296.04592473 423.93538075 302.40625 421.765625 C311.9385287 418.5134211 321.46959307 415.25768514 331 412 C334.38861267 374.72526066 336.51029652 337.34555215 339 300 C266.4 300 193.8 300 119 300 C117.35 267 115.7 234 114 200 C190.23 200 266.46 200 345 200 C345 195.71 345 191.42 345 187 C345.14182377 184.05001277 345.30615338 181.12544702 345.53491211 178.18383789 C345.59182724 177.40153809 345.64874237 176.61923828 345.7073822 175.81323242 C345.89270731 173.28267031 346.08482219 170.75268015 346.27734375 168.22265625 C346.40980923 166.43959531 346.54192869 164.65650863 346.67372131 162.87339783 C346.94900495 159.16268218 347.22750623 155.45222748 347.50854492 151.74194336 C347.86791228 146.99584057 348.22053921 142.24926658 348.57096004 137.50249577 C348.8424656 133.83143446 349.11678683 130.16058797 349.39203072 126.48980522 C349.52309367 124.7392236 349.6534571 122.98858946 349.78309441 121.23790169 C349.96454535 118.79518484 350.1496138 116.35276845 350.33569336 113.91040039 C350.38820251 113.19498581 350.44071167 112.47957123 350.49481201 111.74247742 C350.80309819 107.75358531 351.33912269 103.96526387 352 100 C238.15 100 124.3 100 7 100 C5.80295562 88.02955617 4.62687055 76.09120533 3.7109375 64.1015625 C3.60174217 62.68394613 3.49249816 61.26633352 3.38320923 59.84872437 C3.15807106 56.91994717 2.9348709 53.99102985 2.71289062 51.06201172 C2.43127495 47.35078158 2.14254419 43.64014102 1.8521328 39.92959023 C1.62541755 37.01784483 1.40358685 34.10574138 1.18303299 31.19352341 C1.02896846 29.17406172 0.87008825 27.1549692 0.71102905 25.13589478 C0.61738068 23.88013641 0.5237323 22.62437805 0.42724609 21.33056641 C0.34445404 20.24949615 0.26166199 19.1684259 0.17636108 18.05459595 C-0.08517521 12.04179546 0 6.01848576 0 0 Z " fill="#FFFFFF" transform="translate(202,205)"/>
<path d="M0 0 C113.19 0 226.38 0 343 0 C341.8513826 19.52649584 341.8513826 19.52649584 341.07157803 28.34580708 C340.98333715 29.36607913 340.89509627 30.38635118 340.80418143 31.43754056 C340.51219461 34.80697358 340.21685536 38.1761036 339.92149353 41.54524231 C339.70751471 44.00633231 339.49374534 46.46744053 339.28016573 48.9285652 C338.81738068 54.25582119 338.35313473 59.58294678 337.88756371 64.90995979 C337.19486969 72.83578586 336.50494099 80.761851 335.81555272 88.6879652 C334.65339924 102.04871682 333.48903714 115.40927508 332.32340813 128.76972389 C331.16482348 142.04952312 330.00724951 155.32940983 328.85098457 168.60941124 C328.77873793 169.43917638 328.70649129 170.26894152 328.63205536 171.12385106 C328.26491401 175.34059312 327.89779046 179.55733674 327.53067381 183.77408095 C324.92900704 213.65676334 322.32514237 243.53925384 319.7199707 273.42163086 C317.20978832 302.21450665 314.70053524 331.00746315 312.19262695 359.80053711 C312.11583802 360.68213939 312.03904909 361.56374167 311.95993322 362.47205917 C311.1110422 372.21806555 310.26217953 381.9640744 309.41333187 391.71008456 C307.89670272 409.12319308 306.37996688 426.5362923 304.86317444 443.9493866 C304.78933449 444.79708813 304.71549455 445.64478967 304.63941703 446.51817913 C302.41405312 472.06587074 300.18802466 497.61350437 297.96141052 523.16108704 C297.82449065 524.73207902 297.68757086 526.30307102 297.55065116 527.87406302 C296.94633417 534.80787906 296.34201193 541.74169463 295.73768872 548.67551012 C295.47576339 551.6807616 295.21383879 554.68601314 294.95191456 557.69126472 C294.82265615 559.1743421 294.69339754 560.65741947 294.5641387 562.14049682 C290.03617378 614.09309217 285.51409832 666.04619779 281 718 C266.42935053 722.48034364 251.82813388 726.82301453 237.16455078 730.98852539 C235.20122803 731.54793828 233.23795762 732.10753491 231.2747345 732.66729736 C226.01109891 734.16754397 220.74675184 735.66527914 215.48226404 737.16253209 C209.89544431 738.75195926 204.30931862 740.3438221 198.72311401 741.93540955 C188.12251479 744.95528742 177.52132961 747.97310273 166.91991603 750.99012035 C153.8680037 754.70461185 140.81679582 758.42157601 127.765625 762.13867188 C123.11221771 763.46400023 118.45880666 764.78931541 113.8053894 766.11460876 C112.66997518 766.43797586 111.53456096 766.76134296 110.36474025 767.09450907 C103.79430151 768.96570821 97.22373476 770.83645695 90.65302598 772.70670766 C87.53924446 773.59300812 84.42549469 774.4794201 81.31175041 775.3658514 C77.28130427 776.51325015 73.25073482 777.66021444 69.22009468 778.8069315 C58.51224355 781.85431377 47.80801305 784.91397236 37.10736084 787.98654175 C33.69247435 788.96606452 30.27753812 789.9454137 26.86259055 790.92472351 C23.60473444 791.85995905 20.34771313 792.79806309 17.09070015 793.7362299 C15.12128827 794.30117795 13.15183787 794.86599175 11.18234253 795.4306488 C10.2773932 795.69230249 9.37244386 795.95395617 8.44007182 796.22353876 C7.61617623 796.45912803 6.79228063 796.6947173 5.9434185 796.93744564 C5.22595164 797.14384479 4.50848478 797.35024395 3.7692765 797.56289762 C2 798 2 798 0 798 C0 758.4 0 718.8 0 678 C11.88 674.04 23.76 670.08 36 666 C41.64766595 664.11461691 47.29531783 662.22920777 52.94249344 660.34235954 C115.67642559 639.38449545 115.67642559 639.38449545 142.84179688 630.6015625 C151.29620066 627.86672057 159.73780964 625.09789358 168.1640625 622.27734375 C169.08455887 621.96933334 170.00505524 621.66132294 170.95344543 621.34397888 C175.35531948 619.86989735 179.75566592 618.39143596 184.15405273 616.90698242 C185.6977381 616.38846206 187.2414384 615.86998614 188.78515625 615.3515625 C189.49108917 615.11175156 190.19702209 614.87194061 190.92434692 614.62486267 C195.77378767 613 195.77378767 613 198 613 C198.02018499 612.41263835 198.04036999 611.82527669 198.06116664 611.2201162 C198.68857807 593.40406954 199.68420697 575.61805635 200.78885508 557.82647026 C201.03360973 553.87461246 201.27520462 549.92256116 201.51722717 545.97053528 C201.9911689 538.23927486 202.4679131 530.50818978 202.94561286 522.77716076 C203.50936454 513.65141524 204.07010168 504.52548514 204.63073467 495.39954758 C205.63938246 478.98229767 206.65048715 462.56520002 207.66308594 446.14819336 C208.6284505 430.49691807 209.59245993 414.84556027 210.5546875 399.1940918 C210.61325374 398.24148674 210.67181998 397.28888168 210.73216096 396.30740981 C210.96812457 392.46932548 211.20408222 388.63124079 211.44003232 384.79315563 C214.13426922 340.96802821 216.83745634 297.14345715 219.54746725 253.31930243 C219.8922195 247.74393913 220.23675243 242.16856231 220.5811615 236.5931778 C221.60635868 219.99790766 222.63370336 203.4027746 223.66543198 186.80790901 C223.96321272 182.0173716 224.26003716 177.22677653 224.55597305 172.4361248 C224.89168167 167.00257656 225.22945644 161.56916101 225.56897783 156.13584971 C225.68965835 154.19921515 225.80961111 152.26253505 225.92874861 150.32580495 C226.08928406 147.71809376 226.25252981 145.11056584 226.41647339 142.50306702 C226.46127653 141.76487195 226.50607968 141.02667688 226.55224049 140.26611227 C226.87852467 135.14193909 227.43132008 130.11811932 228 125 C152.76 125 77.52 125 0 125 C0 83.75 0 42.5 0 0 Z " fill="#039BE5" transform="translate(432,80)"/>
<path d="M0 0 C33.33 0 66.66 0 101 0 C101.99 24.75 101.99 24.75 103 50 C103.495 55.94 103.495 55.94 104 62 C105.00207993 62.33746246 106.00415985 62.67492493 107.03660583 63.02261353 C116.55308968 66.22758357 126.06913229 69.4338607 135.58476162 72.64136696 C140.47499333 74.28970967 145.36537098 75.93761645 150.25610352 77.58447266 C154.98975809 79.17845488 159.72300138 80.77365307 164.4559803 82.36964035 C166.24761895 82.97356473 168.03939708 83.57707553 169.83132744 84.18013382 C178.79422252 87.19681522 187.74912487 90.23510386 196.67602539 93.35693359 C197.76543128 93.73489547 197.76543128 93.73489547 198.87684536 94.12049294 C203.882778 95.882778 203.882778 95.882778 205 97 C205.0953919 98.37876025 205.12188622 99.76236916 205.12025452 101.14442444 C205.12231651 102.48433693 205.12231651 102.48433693 205.12442017 103.85131836 C205.12082489 104.83890137 205.11722961 105.82648438 205.11352539 106.84399414 C205.11367142 107.87801865 205.11381744 108.91204315 205.1139679 109.97740173 C205.11326827 113.41334086 205.10547358 116.84922653 205.09765625 120.28515625 C205.09579225 122.66027293 205.09436826 125.03539 205.09336853 127.4105072 C205.08954197 133.67576144 205.0797105 139.94099267 205.06866455 146.20623779 C205.0584534 152.5938689 205.05387155 158.98150371 205.04882812 165.36914062 C205.03808836 177.91277026 205.02120127 190.45638391 205 203 C198.88578975 201.36596561 192.81197211 199.68673246 186.80053711 197.70117188 C186.1584068 197.48994721 185.51627649 197.27872255 184.85468769 197.06109715 C182.74468836 196.36629894 180.63602545 195.66753589 178.52734375 194.96875 C176.99599389 194.46365035 175.46455827 193.95881061 173.93304443 193.45420837 C169.79615976 192.09043753 165.66040876 190.72325905 161.52486801 189.35541916 C157.15954822 187.91218489 152.79324587 186.47192971 148.42700195 185.03149414 C142.94293044 183.22212739 137.45894396 181.41250518 131.97538757 179.60157776 C119.73555124 175.55975797 107.49204661 171.52923431 95.24572563 167.50710678 C89.72815846 165.69479595 84.21096182 163.88135729 78.69371128 162.06808281 C74.29674196 160.62310578 69.89957022 159.17875135 65.50192261 157.73583984 C45.94344562 151.31776312 26.42039316 144.82723216 7 138 C5.23271074 115.20915014 3.9526769 92.39441537 2.71289062 69.56982422 C2.43098518 64.38411568 2.14235925 59.19880413 1.8521328 54.01355553 C1.62568926 49.94863975 1.40376219 45.88348608 1.18303299 41.81825638 C1.07857558 39.90719544 0.97257489 37.99621808 0.86484909 36.08533859 C0.7142478 33.40527203 0.57006859 30.72492461 0.42724609 28.04443359 C0.38363449 27.29286987 0.34002289 26.54130615 0.29508972 25.76696777 C-0.14968892 17.1577773 0 8.66069729 0 0 Z " fill="#EEEEEE" transform="translate(227,555)"/>
<path d="M0 0 C75.9 0 151.8 0 230 0 C230 33 230 66 230 100 C156.41 100 82.82 100 7 100 C5.80295562 88.02955617 4.62687055 76.09120533 3.7109375 64.1015625 C3.60174217 62.68394613 3.49249816 61.26633352 3.38320923 59.84872437 C3.15807106 56.91994717 2.9348709 53.99102985 2.71289062 51.06201172 C2.43127495 47.35078158 2.14254419 43.64014102 1.8521328 39.92959023 C1.62541755 37.01784483 1.40358685 34.10574138 1.18303299 31.19352341 C1.02896846 29.17406172 0.87008825 27.1549692 0.71102905 25.13589478 C0.61738068 23.88013641 0.5237323 22.62437805 0.42724609 21.33056641 C0.34445404 20.24949615 0.26166199 19.1684259 0.17636108 18.05459595 C-0.08517521 12.04179546 0 6.01848576 0 0 Z " fill="#EEEEEE" transform="translate(202,205)"/>
<path d="M0 0 C35.97 0 71.94 0 109 0 C109 16.08682283 109 16.08682283 108.46508789 23.83178711 C108.37971519 25.14934998 108.37971519 25.14934998 108.2926178 26.49353027 C108.10710832 29.33845014 107.9150745 32.18288354 107.72265625 35.02734375 C107.59020539 37.03078604 107.45808558 39.03425023 107.32627869 41.03773499 C107.05087609 45.20902872 106.77238037 49.38010003 106.49145508 53.55102539 C106.13228247 58.88558157 105.77959763 64.22054226 105.42903996 69.55567074 C105.15746563 73.68140083 104.8831628 77.80694586 104.60796928 81.93243599 C104.47692461 83.89990291 104.34656122 85.86741534 104.21690559 87.83497429 C104.03537132 90.58149411 103.85032673 93.32775543 103.66430664 96.07397461 C103.61179749 96.87773026 103.55928833 97.6814859 103.50518799 98.50959778 C103.19344905 103.04853367 102.70059946 107.50417396 102 112 C93.30848736 115.65999273 84.40210761 118.64830633 75.46875 121.6484375 C73.86698585 122.18861704 72.26530286 122.72903727 70.66369629 123.26968384 C66.46295739 124.68695047 62.26107952 126.10081016 58.05895996 127.51397705 C53.83804492 128.93420432 49.61831754 130.35795115 45.3984375 131.78125 C30.27427275 136.88042228 15.14169114 141.95276962 0 147 C0 98.49 0 49.98 0 0 Z " fill="#039BE5" transform="translate(432,505)"/>
<path d="M0 0 C40.26 0 80.52 0 122 0 C120.85121817 21.82685476 120.85121817 21.82685476 120.33569336 28.5925293 C120.27609971 29.3977065 120.21650606 30.2028837 120.15510654 31.03246021 C119.96858411 33.54652562 119.77931236 36.06037388 119.58984375 38.57421875 C119.47153412 40.16327553 119.35341123 41.75234623 119.23547363 43.34143066 C118.80505875 49.12362118 118.37108051 54.905546 117.9375 60.6875 C116.968125 73.660625 115.99875 86.63375 115 100 C77.05 100 39.1 100 0 100 C0 67 0 34 0 0 Z " fill="#039BE5" transform="translate(432,305)"/>
<path d="M0 0 C38.28 0 76.56 0 116 0 C116 33 116 66 116 100 C79.37 100 42.74 100 5 100 C3.35 67 1.7 34 0 0 Z " fill="#EEEEEE" transform="translate(316,405)"/>
</svg>
