<?xml version="1.0" encoding="UTF-8"?>
<svg version="1.1" xmlns="http://www.w3.org/2000/svg" width="500" height="500">
<path d="M0 0 C1.24950439 -0.00095673 2.49900879 -0.00191345 3.78637695 -0.00289917 C7.08355496 -0.00374864 10.38068481 0.00023863 13.67785645 0.00585938 C15.68596914 0.00781101 17.69403814 0.00586467 19.70214844 0.00244141 C23.59311921 -0.0037681 27.48402646 -0.00297926 31.375 0 C32.5606958 -0.00202423 33.7463916 -0.00404846 34.96801758 -0.00613403 C44.03960971 0.0192124 52.67142844 0.54653159 61.50390625 2.65625 C64.8766461 3.39233991 68.25738994 3.75861868 71.6875 4.1328125 C71.6875 4.7928125 71.6875 5.4528125 71.6875 6.1328125 C73.234375 6.0709375 73.234375 6.0709375 74.8125 6.0078125 C78.61295138 6.13040771 81.14742076 6.85235831 84.6875 8.1328125 C86.68119031 8.50201441 88.68029077 8.84606832 90.6875 9.1328125 C90.6875 9.7928125 90.6875 10.4528125 90.6875 11.1328125 C91.326875 11.0709375 91.96625 11.0090625 92.625 10.9453125 C96.92242674 11.20842026 100.66626168 12.66098671 104.6875 14.1328125 C104.6875 14.7928125 104.6875 15.4528125 104.6875 16.1328125 C105.40164063 16.25914063 106.11578125 16.38546875 106.8515625 16.515625 C114.05397128 18.08309137 120.96767557 21.14622387 127.6875 24.1328125 C127.6875 24.7928125 127.6875 25.4528125 127.6875 26.1328125 C128.22375 26.2565625 128.76 26.3803125 129.3125 26.5078125 C132.1513286 27.25487266 134.90973202 28.18584614 137.6875 29.1328125 C137.6875 29.7928125 137.6875 30.4528125 137.6875 31.1328125 C140.33978812 32.20806444 142.97118454 33.22737401 145.6875 34.1328125 C145.6875 34.7928125 145.6875 35.4528125 145.6875 36.1328125 C146.55375 36.3184375 146.55375 36.3184375 147.4375 36.5078125 C149.71085767 37.13930074 151.6128529 38.02139441 153.6875 39.1328125 C153.6875 39.7928125 153.6875 40.4528125 153.6875 41.1328125 C154.47125 41.4421875 155.255 41.7515625 156.0625 42.0703125 C158.6875 43.1328125 158.6875 43.1328125 160.6875 44.1328125 C160.6875 44.7928125 160.6875 45.4528125 160.6875 46.1328125 C161.47125 46.4421875 162.255 46.7515625 163.0625 47.0703125 C165.6875 48.1328125 165.6875 48.1328125 167.6875 49.1328125 C167.6875 49.7928125 167.6875 50.4528125 167.6875 51.1328125 C169.0075 51.4628125 170.3275 51.7928125 171.6875 52.1328125 C171.6875 52.7928125 171.6875 53.4528125 171.6875 54.1328125 C172.6775 54.1328125 173.6675 54.1328125 174.6875 54.1328125 C177.375 56.5078125 177.375 56.5078125 179.6875 59.1328125 C179.6875 59.7928125 179.6875 60.4528125 179.6875 61.1328125 C180.30625 61.4421875 180.925 61.7515625 181.5625 62.0703125 C182.9375 62.7578125 184.3125 63.4453125 185.6875 64.1328125 C185.6875 64.7928125 185.6875 65.4528125 185.6875 66.1328125 C186.3475 66.1328125 187.0075 66.1328125 187.6875 66.1328125 C187.6875 66.7928125 187.6875 67.4528125 187.6875 68.1328125 C188.5228125 68.5040625 188.5228125 68.5040625 189.375 68.8828125 C192.13943405 70.37710117 194.37203468 72.00508761 196.6875 74.1328125 C197.03919068 75.46142175 197.37520276 76.79439578 197.6875 78.1328125 C199.0028341 78.83432402 200.33867592 79.49807175 201.6875 80.1328125 C204.6875 83.56138393 204.6875 83.56138393 204.6875 86.1328125 C205.3475 86.1328125 206.0075 86.1328125 206.6875 86.1328125 C208.3125 87.5078125 208.3125 87.5078125 209.6875 89.1328125 C209.6875 89.7928125 209.6875 90.4528125 209.6875 91.1328125 C210.3475 91.1328125 211.0075 91.1328125 211.6875 91.1328125 C211.6875 92.1228125 211.6875 93.1128125 211.6875 94.1328125 C212.3475 94.1328125 213.0075 94.1328125 213.6875 94.1328125 C213.790625 94.7721875 213.89375 95.4115625 214 96.0703125 C214.3403125 97.09125 214.3403125 97.09125 214.6875 98.1328125 C215.6775 98.4628125 216.6675 98.7928125 217.6875 99.1328125 C218.38687532 100.44928369 219.05479133 101.78303401 219.6875 103.1328125 C220.3475 103.4628125 221.0075 103.7928125 221.6875 104.1328125 C222.3125 106.6953125 222.3125 106.6953125 222.6875 109.1328125 C223.3475 109.1328125 224.0075 109.1328125 224.6875 109.1328125 C225.9765625 110.8125 225.9765625 110.8125 227.3125 113.0078125 C227.75851562 113.72710937 228.20453125 114.44640625 228.6640625 115.1875 C229.6875 117.1328125 229.6875 117.1328125 229.6875 119.1328125 C230.3475 119.1328125 231.0075 119.1328125 231.6875 119.1328125 C232.6775 122.1028125 233.6675 125.0728125 234.6875 128.1328125 C235.3475 128.1328125 236.0075 128.1328125 236.6875 128.1328125 C237.0175 130.1128125 237.3475 132.0928125 237.6875 134.1328125 C238.3475 134.1328125 239.0075 134.1328125 239.6875 134.1328125 C239.6875 135.4528125 239.6875 136.7728125 239.6875 138.1328125 C240.3475 138.1328125 241.0075 138.1328125 241.6875 138.1328125 C242.0175 140.1128125 242.3475 142.0928125 242.6875 144.1328125 C243.3475 144.1328125 244.0075 144.1328125 244.6875 144.1328125 C244.6875 145.4528125 244.6875 146.7728125 244.6875 148.1328125 C245.3475 148.1328125 246.0075 148.1328125 246.6875 148.1328125 C247.0175 150.7728125 247.3475 153.4128125 247.6875 156.1328125 C248.3475 156.1328125 249.0075 156.1328125 249.6875 156.1328125 C249.6875 157.7828125 249.6875 159.4328125 249.6875 161.1328125 C250.3475 161.1328125 251.0075 161.1328125 251.6875 161.1328125 C252.0175 163.7728125 252.3475 166.4128125 252.6875 169.1328125 C253.3475 169.1328125 254.0075 169.1328125 254.6875 169.1328125 C254.6875 170.7828125 254.6875 172.4328125 254.6875 174.1328125 C255.3475 174.1328125 256.0075 174.1328125 256.6875 174.1328125 C257.0175 178.0928125 257.3475 182.0528125 257.6875 186.1328125 C258.3475 186.1328125 259.0075 186.1328125 259.6875 186.1328125 C259.6875 188.4428125 259.6875 190.7528125 259.6875 193.1328125 C260.3475 193.1328125 261.0075 193.1328125 261.6875 193.1328125 C261.82027344 194.26460937 261.95304687 195.39640625 262.08984375 196.5625 C262.2680342 198.04429429 262.44643029 199.52606386 262.625 201.0078125 C262.71201172 201.75417969 262.79902344 202.50054687 262.88867188 203.26953125 C263.32076063 207.3281356 263.32076063 207.3281356 264.6875 211.1328125 C265.75585724 219.28474954 265.83567405 227.48720241 265.8203125 235.6953125 C265.82174759 237.42503296 265.82174759 237.42503296 265.82321167 239.18969727 C265.82388735 241.60986384 265.82207614 244.0300323 265.81787109 246.45019531 C265.81251418 250.12308887 265.81783709 253.79586017 265.82421875 257.46875 C265.82355786 259.83593777 265.82227647 262.20312546 265.8203125 264.5703125 C265.82233673 265.6519165 265.82436096 266.73352051 265.82644653 267.84790039 C265.79679173 277.64592251 265.2432288 287.20788416 263.1640625 296.796875 C262.46475642 300.22462119 262.07369007 303.65710186 261.6875 307.1328125 C261.0275 307.1328125 260.3675 307.1328125 259.6875 307.1328125 C259.6875 309.4428125 259.6875 311.7528125 259.6875 314.1328125 C259.0275 314.1328125 258.3675 314.1328125 257.6875 314.1328125 C257.3575 318.0928125 257.0275 322.0528125 256.6875 326.1328125 C256.0275 326.1328125 255.3675 326.1328125 254.6875 326.1328125 C254.6875 327.7828125 254.6875 329.4328125 254.6875 331.1328125 C254.0275 331.1328125 253.3675 331.1328125 252.6875 331.1328125 C252.3575 333.7728125 252.0275 336.4128125 251.6875 339.1328125 C251.0275 339.1328125 250.3675 339.1328125 249.6875 339.1328125 C249.6875 340.7828125 249.6875 342.4328125 249.6875 344.1328125 C249.0275 344.1328125 248.3675 344.1328125 247.6875 344.1328125 C247.3575 346.7728125 247.0275 349.4128125 246.6875 352.1328125 C246.0275 352.1328125 245.3675 352.1328125 244.6875 352.1328125 C244.6875 353.4528125 244.6875 354.7728125 244.6875 356.1328125 C244.0275 356.1328125 243.3675 356.1328125 242.6875 356.1328125 C242.3575 358.1128125 242.0275 360.0928125 241.6875 362.1328125 C241.0275 362.1328125 240.3675 362.1328125 239.6875 362.1328125 C239.6875 363.4528125 239.6875 364.7728125 239.6875 366.1328125 C239.0275 366.1328125 238.3675 366.1328125 237.6875 366.1328125 C237.3575 368.1128125 237.0275 370.0928125 236.6875 372.1328125 C236.0275 372.1328125 235.3675 372.1328125 234.6875 372.1328125 C233.6975 375.1028125 232.7075 378.0728125 231.6875 381.1328125 C231.0275 381.1328125 230.3675 381.1328125 229.6875 381.1328125 C229.419375 381.8546875 229.15125 382.5765625 228.875 383.3203125 C227.68848638 386.13047633 226.41264361 388.61697807 224.6875 391.1328125 C224.0275 391.1328125 223.3675 391.1328125 222.6875 391.1328125 C222.584375 391.8959375 222.48125 392.6590625 222.375 393.4453125 C221.62381677 396.38175602 220.90440342 397.18193749 218.6875 399.1328125 C218.0275 400.1228125 217.3675 401.1128125 216.6875 402.1328125 C216.0275 402.1328125 215.3675 402.1328125 214.6875 402.1328125 C214.3575 403.4528125 214.0275 404.7728125 213.6875 406.1328125 C213.0275 406.1328125 212.3675 406.1328125 211.6875 406.1328125 C211.6875 407.1228125 211.6875 408.1128125 211.6875 409.1328125 C211.0275 409.1328125 210.3675 409.1328125 209.6875 409.1328125 C209.6875 409.7928125 209.6875 410.4528125 209.6875 411.1328125 C208.3125 412.7578125 208.3125 412.7578125 206.6875 414.1328125 C206.0275 414.1328125 205.3675 414.1328125 204.6875 414.1328125 C204.419375 414.8959375 204.15125 415.6590625 203.875 416.4453125 C202.73615495 419.02269868 201.87333329 420.40236114 199.6875 422.1328125 C199.0275 422.1328125 198.3675 422.1328125 197.6875 422.1328125 C197.59339844 422.72578125 197.49929688 423.31875 197.40234375 423.9296875 C196.52804781 426.62423891 195.42029682 427.59604006 193.25 429.3828125 C192.63253906 429.90359375 192.01507813 430.424375 191.37890625 430.9609375 C189.6875 432.1328125 189.6875 432.1328125 187.6875 432.1328125 C187.6875 432.7928125 187.6875 433.4528125 187.6875 434.1328125 C187.0275 434.1328125 186.3675 434.1328125 185.6875 434.1328125 C185.6875 434.7928125 185.6875 435.4528125 185.6875 436.1328125 C182.22596154 439.1328125 182.22596154 439.1328125 179.6875 439.1328125 C179.6875 439.7928125 179.6875 440.4528125 179.6875 441.1328125 C177.375 443.7578125 177.375 443.7578125 174.6875 446.1328125 C173.6975 446.1328125 172.7075 446.1328125 171.6875 446.1328125 C171.6875 446.7928125 171.6875 447.4528125 171.6875 448.1328125 C170.3675 448.4628125 169.0475 448.7928125 167.6875 449.1328125 C167.6875 449.7928125 167.6875 450.4528125 167.6875 451.1328125 C163.30288462 454.1328125 163.30288462 454.1328125 160.6875 454.1328125 C160.6875 454.7928125 160.6875 455.4528125 160.6875 456.1328125 C156.30288462 459.1328125 156.30288462 459.1328125 153.6875 459.1328125 C153.6875 459.7928125 153.6875 460.4528125 153.6875 461.1328125 C150.78201118 463.17450735 149.28607954 464.1328125 145.6875 464.1328125 C145.6875 464.7928125 145.6875 465.4528125 145.6875 466.1328125 C139.9375 469.1328125 139.9375 469.1328125 137.6875 469.1328125 C137.6875 469.7928125 137.6875 470.4528125 137.6875 471.1328125 C131.0625 474.1328125 131.0625 474.1328125 127.6875 474.1328125 C127.6875 474.7928125 127.6875 475.4528125 127.6875 476.1328125 C127.07003906 476.37515625 126.45257813 476.6175 125.81640625 476.8671875 C120.69448246 478.89412842 115.66265535 481.01557931 110.6953125 483.3984375 C108.6875 484.1328125 108.6875 484.1328125 104.6875 484.1328125 C104.6875 484.7928125 104.6875 485.4528125 104.6875 486.1328125 C95.27747722 489.57700384 95.27747722 489.57700384 90.6875 489.1328125 C90.6875 489.7928125 90.6875 490.4528125 90.6875 491.1328125 C89.90503906 491.26558594 89.12257813 491.39835937 88.31640625 491.53515625 C87.30449219 491.71175781 86.29257812 491.88835937 85.25 492.0703125 C84.24066406 492.24433594 83.23132813 492.41835938 82.19140625 492.59765625 C79.7587562 492.88032347 79.7587562 492.88032347 78.6875 494.1328125 C76.35452567 494.17374187 74.02044775 494.17522973 71.6875 494.1328125 C71.6875 494.7928125 71.6875 495.4528125 71.6875 496.1328125 C70.62789063 496.26558594 69.56828125 496.39835937 68.4765625 496.53515625 C67.08851721 496.71335125 65.70049769 496.8917471 64.3125 497.0703125 C63.61382812 497.15732422 62.91515625 497.24433594 62.1953125 497.33398438 C58.31966425 497.79599378 58.31966425 497.79599378 54.6875 499.1328125 C46.53556296 500.20116974 38.33311009 500.28098655 30.125 500.265625 C28.39527954 500.26706009 28.39527954 500.26706009 26.63061523 500.26852417 C24.21044866 500.26919985 21.7902802 500.26738864 19.37011719 500.26318359 C15.69722363 500.25782668 12.02445233 500.26314959 8.3515625 500.26953125 C5.98437473 500.26887036 3.61718704 500.26758897 1.25 500.265625 C-0.37240601 500.26866135 -0.37240601 500.26866135 -2.02758789 500.27175903 C-11.54854242 500.24294281 -20.92510316 499.881279 -30.19921875 497.609375 C-33.5448301 496.85491181 -36.90520164 496.50451778 -40.3125 496.1328125 C-40.3125 495.4728125 -40.3125 494.8128125 -40.3125 494.1328125 C-41.859375 494.1946875 -41.859375 494.1946875 -43.4375 494.2578125 C-47.23795138 494.13521729 -49.77242076 493.41326669 -53.3125 492.1328125 C-55.30619031 491.76361059 -57.30529077 491.41955668 -59.3125 491.1328125 C-59.3125 490.4728125 -59.3125 489.8128125 -59.3125 489.1328125 C-60.2715625 489.225625 -60.2715625 489.225625 -61.25 489.3203125 C-65.54742674 489.05720474 -69.29126168 487.60463829 -73.3125 486.1328125 C-73.3125 485.4728125 -73.3125 484.8128125 -73.3125 484.1328125 C-74.02664062 484.00648438 -74.74078125 483.88015625 -75.4765625 483.75 C-82.67897128 482.18253363 -89.59267557 479.11940113 -96.3125 476.1328125 C-96.3125 475.4728125 -96.3125 474.8128125 -96.3125 474.1328125 C-96.84875 474.0090625 -97.385 473.8853125 -97.9375 473.7578125 C-100.7763286 473.01075234 -103.53473202 472.07977886 -106.3125 471.1328125 C-106.3125 470.4728125 -106.3125 469.8128125 -106.3125 469.1328125 C-108.96478812 468.05756056 -111.59618454 467.03825099 -114.3125 466.1328125 C-114.3125 465.4728125 -114.3125 464.8128125 -114.3125 464.1328125 C-114.89 464.0090625 -115.4675 463.8853125 -116.0625 463.7578125 C-118.33585767 463.12632426 -120.2378529 462.24423059 -122.3125 461.1328125 C-122.3125 460.4728125 -122.3125 459.8128125 -122.3125 459.1328125 C-123.09625 458.8234375 -123.88 458.5140625 -124.6875 458.1953125 C-127.3125 457.1328125 -127.3125 457.1328125 -129.3125 456.1328125 C-129.3125 455.4728125 -129.3125 454.8128125 -129.3125 454.1328125 C-130.09625 453.8234375 -130.88 453.5140625 -131.6875 453.1953125 C-134.3125 452.1328125 -134.3125 452.1328125 -136.3125 451.1328125 C-136.3125 450.4728125 -136.3125 449.8128125 -136.3125 449.1328125 C-137.6325 448.8028125 -138.9525 448.4728125 -140.3125 448.1328125 C-140.3125 447.4728125 -140.3125 446.8128125 -140.3125 446.1328125 C-141.3025 446.1328125 -142.2925 446.1328125 -143.3125 446.1328125 C-146 443.7578125 -146 443.7578125 -148.3125 441.1328125 C-148.3125 440.4728125 -148.3125 439.8128125 -148.3125 439.1328125 C-148.93125 438.8234375 -149.55 438.5140625 -150.1875 438.1953125 C-151.5625 437.5078125 -152.9375 436.8203125 -154.3125 436.1328125 C-154.3125 435.4728125 -154.3125 434.8128125 -154.3125 434.1328125 C-154.9725 434.1328125 -155.6325 434.1328125 -156.3125 434.1328125 C-156.3125 433.4728125 -156.3125 432.8128125 -156.3125 432.1328125 C-156.869375 431.8853125 -157.42625 431.6378125 -158 431.3828125 C-160.76443405 429.88852383 -162.99703468 428.26053739 -165.3125 426.1328125 C-165.66419068 424.80420325 -166.00020276 423.47122922 -166.3125 422.1328125 C-167.6278341 421.43130098 -168.96367592 420.76755325 -170.3125 420.1328125 C-173.3125 416.70424107 -173.3125 416.70424107 -173.3125 414.1328125 C-173.9725 414.1328125 -174.6325 414.1328125 -175.3125 414.1328125 C-176.9375 412.7578125 -176.9375 412.7578125 -178.3125 411.1328125 C-178.3125 410.4728125 -178.3125 409.8128125 -178.3125 409.1328125 C-178.9725 409.1328125 -179.6325 409.1328125 -180.3125 409.1328125 C-180.3125 408.1428125 -180.3125 407.1528125 -180.3125 406.1328125 C-180.9725 406.1328125 -181.6325 406.1328125 -182.3125 406.1328125 C-182.415625 405.4934375 -182.51875 404.8540625 -182.625 404.1953125 C-182.851875 403.5146875 -183.07875 402.8340625 -183.3125 402.1328125 C-184.3025 401.8028125 -185.2925 401.4728125 -186.3125 401.1328125 C-187.01187532 399.81634131 -187.67979133 398.48259099 -188.3125 397.1328125 C-188.9725 396.8028125 -189.6325 396.4728125 -190.3125 396.1328125 C-190.9375 393.5703125 -190.9375 393.5703125 -191.3125 391.1328125 C-191.9725 391.1328125 -192.6325 391.1328125 -193.3125 391.1328125 C-194.6015625 389.453125 -194.6015625 389.453125 -195.9375 387.2578125 C-196.38351563 386.53851563 -196.82953125 385.81921875 -197.2890625 385.078125 C-198.3125 383.1328125 -198.3125 383.1328125 -198.3125 381.1328125 C-198.9725 381.1328125 -199.6325 381.1328125 -200.3125 381.1328125 C-201.3025 378.1628125 -202.2925 375.1928125 -203.3125 372.1328125 C-203.9725 372.1328125 -204.6325 372.1328125 -205.3125 372.1328125 C-205.6425 370.1528125 -205.9725 368.1728125 -206.3125 366.1328125 C-206.9725 366.1328125 -207.6325 366.1328125 -208.3125 366.1328125 C-208.3125 364.8128125 -208.3125 363.4928125 -208.3125 362.1328125 C-208.9725 362.1328125 -209.6325 362.1328125 -210.3125 362.1328125 C-210.6425 360.1528125 -210.9725 358.1728125 -211.3125 356.1328125 C-211.9725 356.1328125 -212.6325 356.1328125 -213.3125 356.1328125 C-213.3125 354.8128125 -213.3125 353.4928125 -213.3125 352.1328125 C-213.9725 352.1328125 -214.6325 352.1328125 -215.3125 352.1328125 C-215.8075 348.1728125 -215.8075 348.1728125 -216.3125 344.1328125 C-216.9725 344.1328125 -217.6325 344.1328125 -218.3125 344.1328125 C-218.3125 342.4828125 -218.3125 340.8328125 -218.3125 339.1328125 C-218.9725 339.1328125 -219.6325 339.1328125 -220.3125 339.1328125 C-220.6425 336.4928125 -220.9725 333.8528125 -221.3125 331.1328125 C-221.9725 331.1328125 -222.6325 331.1328125 -223.3125 331.1328125 C-223.3125 329.4828125 -223.3125 327.8328125 -223.3125 326.1328125 C-223.9725 326.1328125 -224.6325 326.1328125 -225.3125 326.1328125 C-225.6425 322.1728125 -225.9725 318.2128125 -226.3125 314.1328125 C-226.9725 314.1328125 -227.6325 314.1328125 -228.3125 314.1328125 C-228.3125 311.8228125 -228.3125 309.5128125 -228.3125 307.1328125 C-228.9725 307.1328125 -229.6325 307.1328125 -230.3125 307.1328125 C-230.44527344 306.00101562 -230.57804688 304.86921875 -230.71484375 303.703125 C-230.8930342 302.22133071 -231.07143029 300.73956114 -231.25 299.2578125 C-231.33701172 298.51144531 -231.42402344 297.76507813 -231.51367188 296.99609375 C-231.94576063 292.9374894 -231.94576063 292.9374894 -233.3125 289.1328125 C-234.56708299 281.42673762 -234.45859957 273.60322996 -234.4453125 265.8203125 C-234.44626923 264.57080811 -234.44722595 263.32130371 -234.44821167 262.03393555 C-234.44906114 258.73675754 -234.44507387 255.43962769 -234.43945312 252.14245605 C-234.43750149 250.13434336 -234.43944783 248.12627436 -234.44287109 246.11816406 C-234.4490806 242.22719329 -234.44829176 238.33628604 -234.4453125 234.4453125 C-234.44733673 233.2596167 -234.44936096 232.0739209 -234.45144653 230.85229492 C-234.42806828 222.48512103 -234.13967783 214.20156307 -232.3125 206.0078125 C-231.40438896 201.72478131 -230.79592213 197.48361164 -230.3125 193.1328125 C-229.6525 193.1328125 -228.9925 193.1328125 -228.3125 193.1328125 C-228.3125 190.8228125 -228.3125 188.5128125 -228.3125 186.1328125 C-227.6525 186.1328125 -226.9925 186.1328125 -226.3125 186.1328125 C-225.9825 182.1728125 -225.6525 178.2128125 -225.3125 174.1328125 C-224.6525 174.1328125 -223.9925 174.1328125 -223.3125 174.1328125 C-223.3125 172.4828125 -223.3125 170.8328125 -223.3125 169.1328125 C-222.6525 169.1328125 -221.9925 169.1328125 -221.3125 169.1328125 C-220.8175 165.1728125 -220.8175 165.1728125 -220.3125 161.1328125 C-219.6525 161.1328125 -218.9925 161.1328125 -218.3125 161.1328125 C-218.3125 159.4828125 -218.3125 157.8328125 -218.3125 156.1328125 C-217.6525 156.1328125 -216.9925 156.1328125 -216.3125 156.1328125 C-215.9825 153.4928125 -215.6525 150.8528125 -215.3125 148.1328125 C-214.6525 148.1328125 -213.9925 148.1328125 -213.3125 148.1328125 C-213.3125 146.8128125 -213.3125 145.4928125 -213.3125 144.1328125 C-212.6525 144.1328125 -211.9925 144.1328125 -211.3125 144.1328125 C-210.8175 141.1628125 -210.8175 141.1628125 -210.3125 138.1328125 C-209.6525 138.1328125 -208.9925 138.1328125 -208.3125 138.1328125 C-208.3125 136.8128125 -208.3125 135.4928125 -208.3125 134.1328125 C-207.6525 134.1328125 -206.9925 134.1328125 -206.3125 134.1328125 C-205.8175 131.1628125 -205.8175 131.1628125 -205.3125 128.1328125 C-204.6525 128.1328125 -203.9925 128.1328125 -203.3125 128.1328125 C-202.3225 125.1628125 -201.3325 122.1928125 -200.3125 119.1328125 C-199.6525 119.1328125 -198.9925 119.1328125 -198.3125 119.1328125 C-198.044375 118.4109375 -197.77625 117.6890625 -197.5 116.9453125 C-196.31348638 114.13514867 -195.03764361 111.64864693 -193.3125 109.1328125 C-192.6525 109.1328125 -191.9925 109.1328125 -191.3125 109.1328125 C-191.209375 108.3696875 -191.10625 107.6065625 -191 106.8203125 C-190.24881677 103.88386898 -189.52940342 103.08368751 -187.3125 101.1328125 C-186.3225 99.6478125 -186.3225 99.6478125 -185.3125 98.1328125 C-184.6525 98.1328125 -183.9925 98.1328125 -183.3125 98.1328125 C-182.8175 96.1528125 -182.8175 96.1528125 -182.3125 94.1328125 C-181.6525 94.1328125 -180.9925 94.1328125 -180.3125 94.1328125 C-180.3125 93.1428125 -180.3125 92.1528125 -180.3125 91.1328125 C-179.6525 91.1328125 -178.9925 91.1328125 -178.3125 91.1328125 C-178.3125 90.4728125 -178.3125 89.8128125 -178.3125 89.1328125 C-176.9375 87.5078125 -176.9375 87.5078125 -175.3125 86.1328125 C-174.6525 86.1328125 -173.9925 86.1328125 -173.3125 86.1328125 C-173.044375 85.3696875 -172.77625 84.6065625 -172.5 83.8203125 C-171.36115495 81.24292632 -170.49833329 79.86326386 -168.3125 78.1328125 C-167.6525 78.1328125 -166.9925 78.1328125 -166.3125 78.1328125 C-166.17134766 77.24335938 -166.17134766 77.24335938 -166.02734375 76.3359375 C-165.15304781 73.64138609 -164.04529682 72.66958494 -161.875 70.8828125 C-161.25753906 70.36203125 -160.64007813 69.84125 -160.00390625 69.3046875 C-158.3125 68.1328125 -158.3125 68.1328125 -156.3125 68.1328125 C-156.3125 67.4728125 -156.3125 66.8128125 -156.3125 66.1328125 C-155.6525 66.1328125 -154.9925 66.1328125 -154.3125 66.1328125 C-154.3125 65.4728125 -154.3125 64.8128125 -154.3125 64.1328125 C-150.85096154 61.1328125 -150.85096154 61.1328125 -148.3125 61.1328125 C-148.3125 60.4728125 -148.3125 59.8128125 -148.3125 59.1328125 C-146 56.5078125 -146 56.5078125 -143.3125 54.1328125 C-142.3225 54.1328125 -141.3325 54.1328125 -140.3125 54.1328125 C-140.3125 53.4728125 -140.3125 52.8128125 -140.3125 52.1328125 C-138.9925 51.8028125 -137.6725 51.4728125 -136.3125 51.1328125 C-136.3125 50.4728125 -136.3125 49.8128125 -136.3125 49.1328125 C-131.92788462 46.1328125 -131.92788462 46.1328125 -129.3125 46.1328125 C-129.3125 45.4728125 -129.3125 44.8128125 -129.3125 44.1328125 C-124.92788462 41.1328125 -124.92788462 41.1328125 -122.3125 41.1328125 C-122.3125 40.4728125 -122.3125 39.8128125 -122.3125 39.1328125 C-119.40701118 37.09111765 -117.91107954 36.1328125 -114.3125 36.1328125 C-114.3125 35.4728125 -114.3125 34.8128125 -114.3125 34.1328125 C-108.5625 31.1328125 -108.5625 31.1328125 -106.3125 31.1328125 C-106.3125 30.4728125 -106.3125 29.8128125 -106.3125 29.1328125 C-99.6875 26.1328125 -99.6875 26.1328125 -96.3125 26.1328125 C-96.3125 25.4728125 -96.3125 24.8128125 -96.3125 24.1328125 C-95.69503906 23.89046875 -95.07757813 23.648125 -94.44140625 23.3984375 C-89.31948246 21.37149658 -84.28765535 19.25004569 -79.3203125 16.8671875 C-77.3125 16.1328125 -77.3125 16.1328125 -73.3125 16.1328125 C-73.3125 15.4728125 -73.3125 14.8128125 -73.3125 14.1328125 C-63.90247722 10.68862116 -63.90247722 10.68862116 -59.3125 11.1328125 C-59.3125 10.4728125 -59.3125 9.8128125 -59.3125 9.1328125 C-58.53003906 9.00003906 -57.74757812 8.86726562 -56.94140625 8.73046875 C-55.92949219 8.55386719 -54.91757813 8.37726562 -53.875 8.1953125 C-52.86566406 8.02128906 -51.85632813 7.84726563 -50.81640625 7.66796875 C-48.3837562 7.38530153 -48.3837562 7.38530153 -47.3125 6.1328125 C-44.97952567 6.09188313 -42.64544775 6.09039527 -40.3125 6.1328125 C-40.3125 5.4728125 -40.3125 4.8128125 -40.3125 4.1328125 C-39.25289062 4.00003906 -38.19328125 3.86726562 -37.1015625 3.73046875 C-35.71351721 3.55227375 -34.32549769 3.3738779 -32.9375 3.1953125 C-31.88949219 3.06479492 -31.88949219 3.06479492 -30.8203125 2.93164062 C-26.94466425 2.46963122 -26.94466425 2.46963122 -23.3125 1.1328125 C-15.60642512 -0.12177049 -7.78291746 -0.01328707 0 0 Z " fill="#4478A0" transform="translate(234.3125,-0.1328125)"/>
<path d="M0 0 C1.5 1.875 1.5 1.875 1.5 4.875 C2.16 4.875 2.82 4.875 3.5 4.875 C9.14705296 13.80098694 8.63606243 21.94019687 8.5625 32.3125 C8.55798828 33.52099609 8.55347656 34.72949219 8.54882812 35.97460938 C8.53710145 38.94145789 8.52068896 41.9082027 8.5 44.875 C7.84 44.875 7.18 44.875 6.5 44.875 C6.5825 45.65875 6.665 46.4425 6.75 47.25 C6.12908478 56.25327066 1.12987303 64.08032565 -4.5 70.875 C-1.53 71.865 1.44 72.855 4.5 73.875 C4.5 74.535 4.5 75.195 4.5 75.875 C6.15 76.205 7.8 76.535 9.5 76.875 C8.96930939 80.69597239 8.00298434 82.93671403 5.5 85.875 C0.64036821 85.26754603 -3.2405518 83.14741033 -7.5 80.875 C-7.5 80.215 -7.5 79.555 -7.5 78.875 C-12.32810451 76.31254289 -16.71829884 76.845972 -22 77.0625 C-31.72922967 77.22294942 -40.52546904 76.54947989 -47.9609375 69.5625 C-57.05346917 58.79589211 -57.67984693 48.53699924 -57.6875 34.9375 C-57.70586914 33.22530273 -57.70586914 33.22530273 -57.72460938 31.47851562 C-57.74616018 19.04370165 -55.17576801 7.9722164 -46.484375 -1.33203125 C-32.98407311 -13.53013867 -13.16810421 -11.19288858 0 0 Z " fill="#DF8832" transform="translate(341.5,251.125)"/>
<path d="M0 0 C5.94 0 11.88 0 18 0 C18.66 1.98 19.32 3.96 20 6 C20.84677313 8.44007832 21.70113424 10.87753471 22.5625 13.3125 C22.99691406 14.54613281 23.43132812 15.77976562 23.87890625 17.05078125 C24.71191741 19.8484872 24.71191741 19.8484872 26 21 C26.50390861 23.60658182 26.89991416 26.22398907 27.3046875 28.84765625 C28.00194433 32.00881501 28.99949511 34.83109149 30.17089844 37.83862305 C31.63005969 41.6424966 32.89840361 45.51089379 34.1875 49.375 C34.46013672 50.18066406 34.73277344 50.98632812 35.01367188 51.81640625 C35.27083984 52.58597656 35.52800781 53.35554688 35.79296875 54.1484375 C36.0252417 54.84114746 36.25751465 55.53385742 36.49682617 56.24755859 C37 58 37 58 37 60 C37.99 60 38.98 60 40 60 C40.09087891 58.86111328 40.09087891 58.86111328 40.18359375 57.69921875 C40.26738281 56.70535156 40.35117188 55.71148437 40.4375 54.6875 C40.51871094 53.70136719 40.59992188 52.71523438 40.68359375 51.69921875 C41 49 41 49 42 46 C42.66 46 43.32 46 44 46 C43.94610107 44.9020813 43.94610107 44.9020813 43.89111328 43.78198242 C44.00500627 40.87209324 44.5717258 39.13212443 45.7421875 36.48828125 C48.26050733 30.50311143 50.19127817 24.38202715 52.125 18.1875 C52.81343164 15.99296421 53.50347644 13.79893366 54.1953125 11.60546875 C54.49453613 10.64793701 54.79375977 9.69040527 55.10205078 8.70385742 C55.96677029 6.10005955 56.98104156 3.5473961 58 1 C63.61 1 69.22 1 75 1 C75.22786458 4.58072917 75.45572917 8.16145833 75.68359375 11.7421875 C75.79206027 14.88300152 75.79206027 14.88300152 77 17 C77.38030361 19.68886537 77.71065991 22.36358278 78 25.0625 C78.08757568 25.8572876 78.17515137 26.6520752 78.26538086 27.47094727 C78.93959887 33.83925995 79.37558255 40.20658534 79.65820312 46.60375977 C79.80182871 49.63125523 80.0351109 52.1053327 81 55 C81.08358958 57.21089945 81.10731764 59.42426078 81.09765625 61.63671875 C81.09282227 63.58481445 81.09282227 63.58481445 81.08789062 65.57226562 C81.07953531 66.94401108 81.07107037 68.31575587 81.0625 69.6875 C81.05748335 71.07096195 81.05292073 72.45442563 81.04882812 73.83789062 C81.03702538 77.22527896 81.01908967 80.6126449 81 84 C76.38 84 71.76 84 67 84 C66.94465088 82.54182861 66.88930176 81.08365723 66.83227539 79.58129883 C66.6257082 74.16723795 66.41386752 68.75339401 66.20043945 63.33959961 C66.10883209 60.99720749 66.01865168 58.65475911 65.92993164 56.31225586 C65.80210178 52.94368913 65.66912836 49.5753586 65.53515625 46.20703125 C65.49656998 45.16102249 65.4579837 44.11501373 65.41822815 43.03730774 C65.37826218 42.05666855 65.3382962 41.07602936 65.29711914 40.06567383 C65.26380997 39.20629715 65.23050079 38.34692047 65.19618225 37.46150208 C64.99291535 34.91110884 64.51910174 32.50283689 64 30 C63.93540958 28.23022239 63.91388935 26.45829848 63.9375 24.6875 C63.94652344 23.80449219 63.95554687 22.92148437 63.96484375 22.01171875 C63.97644531 21.34785156 63.98804688 20.68398438 64 20 C63.34 20.33 62.68 20.66 62 21 C61.25881795 23.31074405 60.59793673 25.64811553 60 28 C59.79375 28.804375 59.5875 29.60875 59.375 30.4375 C59.189375 31.2109375 59.189375 31.2109375 59 32 C58.34 32 57.68 32 57 32 C56.96261719 32.56847656 56.92523438 33.13695312 56.88671875 33.72265625 C56.43043388 39.08176676 55.17441863 43.04232552 53 48 C52.20128056 51.31176352 51.57419979 54.64262005 51 58 C50.34 58 49.68 58 49 58 C49 59.65 49 61.3 49 63 C48.34 63 47.68 63 47 63 C46.49922896 65.48612878 46.00514994 67.97269232 45.53515625 70.46484375 C44.64675379 75.11243677 43.64103174 79.54577099 42 84 C38.37 84 34.74 84 31 84 C29.28004768 79.7001192 28.66988459 77.15991622 28.375 72.6875 C28.30023438 71.61886719 28.22546875 70.55023438 28.1484375 69.44921875 C28.09945312 68.64097656 28.05046875 67.83273437 28 67 C27.34 67 26.68 67 26 67 C26 65.68 26 64.36 26 63 C25.34 63 24.68 63 24 63 C23.61908203 61.42412109 23.61908203 61.42412109 23.23046875 59.81640625 C21.42710458 52.42939669 19.53710632 45.1730915 17 38 C16.09468225 35.35733439 15.20296791 32.71019951 14.3125 30.0625 C13.97230835 29.06657837 13.97230835 29.06657837 13.62524414 28.05053711 C12 23.22713144 12 23.22713144 12 21 C11.34 21 10.68 21 10 21 C9.34 41.79 8.68 62.58 8 84 C3.38 84 -1.24 84 -6 84 C-6.33262543 55.80075543 -3.8734059 27.91434522 0 0 Z " fill="#F4F7F9" transform="translate(76,243)"/>
<path d="M0 0 C1.155 0.495 2.31 0.99 3.5 1.5 C3.5 2.16 3.5 2.82 3.5 3.5 C4.675625 3.9640625 4.675625 3.9640625 5.875 4.4375 C8.5 5.5 8.5 5.5 10.5 6.5 C10.5 7.16 10.5 7.82 10.5 8.5 C13.8 8.5 17.1 8.5 20.5 8.5 C20.5 9.16 20.5 9.82 20.5 10.5 C21.4590625 10.37625 21.4590625 10.37625 22.4375 10.25 C32.68030446 11.0861473 44.84245256 19.05921168 51.5 26.5 C52.4075 27.20125 53.315 27.9025 54.25 28.625 C60.38185857 33.62604829 65.75338481 40.55389439 69.5 47.5 C69.5 48.16 69.5 48.82 69.5 49.5 C70.16 49.5 70.82 49.5 71.5 49.5 C72.18835938 51.2015625 72.18835938 51.2015625 72.890625 52.9375 C73.51025123 54.45840074 74.13005228 55.97923028 74.75 57.5 C75.20052734 58.61568359 75.20052734 58.61568359 75.66015625 59.75390625 C77.47711788 64.19966343 79.44541695 68.46356784 81.75683594 72.67578125 C82.5 74.5 82.5 74.5 82.5 78.5 C83.16 78.5 83.82 78.5 84.5 78.5 C84.5 79.49 84.5 80.48 84.5 81.5 C85.16 81.5 85.82 81.5 86.5 81.5 C86.891875 82.44875 87.28375 83.3975 87.6875 84.375 C89.79354788 88.00611703 90.64534745 88.24499685 94.5 89.5 C96.5 90.83333333 98.5 92.16666667 100.5 93.5 C102.14619113 94.21573527 103.80728055 94.9025696 105.5 95.5 C105.5 96.16 105.5 96.82 105.5 97.5 C106.56154297 97.86158203 106.56154297 97.86158203 107.64453125 98.23046875 C110.94418729 99.69748409 113.3855402 101.53805787 116.1875 103.8125 C117.14011719 104.57175781 118.09273437 105.33101563 119.07421875 106.11328125 C121.53081146 108.5303153 122.51267399 110.23778248 123.5 113.5 C122.51 113.5 121.52 113.5 120.5 113.5 C120.5 114.16 120.5 114.82 120.5 115.5 C114.69233704 117.0056904 109.5018137 117.71824777 103.5 117.5 C105.6904184 121.81401048 107.94451676 123.7124149 112.0625 126.1875 C118.37123329 130.22170826 123.66560193 134.74578283 128.5 140.5 C128.5 141.16 128.5 141.82 128.5 142.5 C124.9124787 141.16749209 121.6635377 139.669283 118.5 137.5 C118.5 136.84 118.5 136.18 118.5 135.5 C117.51 135.5 116.52 135.5 115.5 135.5 C115.5 134.84 115.5 134.18 115.5 133.5 C114.77425781 133.38785156 114.04851562 133.27570313 113.30078125 133.16015625 C110.37436007 132.47038613 108.27712191 131.44489186 105.6875 129.9375 C104.89730469 129.48246094 104.10710937 129.02742187 103.29296875 128.55859375 C102.70128906 128.20925781 102.10960937 127.85992187 101.5 127.5 C101.5 126.84 101.5 126.18 101.5 125.5 C100.860625 125.273125 100.22125 125.04625 99.5625 124.8125 C97.5 123.5 97.5 123.5 96.75 120.875 C96.6675 120.09125 96.585 119.3075 96.5 118.5 C95.84 118.5 95.18 118.5 94.5 118.5 C94.83 116.85 95.16 115.2 95.5 113.5 C102.55453001 112.29556805 109.33437211 111.21899498 116.5 111.5 C116.5 110.51 116.5 109.52 116.5 108.5 C115.77425781 108.231875 115.04851562 107.96375 114.30078125 107.6875 C111.53135976 106.51329619 109.19080566 105.1605676 106.6875 103.5 C105.89730469 102.984375 105.10710937 102.46875 104.29296875 101.9375 C103.70128906 101.463125 103.10960937 100.98875 102.5 100.5 C102.5 99.84 102.5 99.18 102.5 98.5 C100.64375 98.314375 100.64375 98.314375 98.75 98.125 C95.6237803 97.74253695 93.21120763 97.19450477 90.5 95.5 C90.5 94.84 90.5 94.18 90.5 93.5 C89.736875 93.355625 88.97375 93.21125 88.1875 93.0625 C82.80915059 91.93679896 82.80915059 91.93679896 81.42504883 89.98120117 C81.10560303 89.34158447 80.78615723 88.70196777 80.45703125 88.04296875 C79.93012695 86.99206055 79.93012695 86.99206055 79.39257812 85.91992188 C79.03615234 85.18322266 78.67972656 84.44652344 78.3125 83.6875 C77.94447266 82.96240234 77.57644531 82.23730469 77.19726562 81.49023438 C75.3451395 77.73443873 74.5 75.82708051 74.5 71.5 C73.84 71.5 73.18 71.5 72.5 71.5 C72.29246094 70.77296875 72.08492188 70.0459375 71.87109375 69.296875 C68.82177525 59.34512426 64.32064112 50.42480228 57.5 42.5 C56.84 42.17 56.18 41.84 55.5 41.5 C54.9121875 40.448125 54.9121875 40.448125 54.3125 39.375 C51.65590602 35.16109231 48.02263454 30.76131727 43.5 28.5 C43.5 27.84 43.5 27.18 43.5 26.5 C42.41138672 26.09587891 42.41138672 26.09587891 41.30078125 25.68359375 C38.55133642 24.52169447 36.20386679 23.16012868 33.6875 21.5625 C27.10113231 17.58545912 22.04505953 15.49680737 14.3125 15.0625 C9.41157621 14.77275985 7.05774226 14.05774226 3.5 10.5 C1.31785432 9.72166466 1.31785432 9.72166466 -0.5 9.5 C-0.5 8.84 -0.5 8.18 -0.5 7.5 C-4.13 6.84 -7.76 6.18 -11.5 5.5 C-11.09727025 11.25328208 -9.68656643 14.1134526 -6 18.5 C-2.31343357 22.8865474 -0.90272975 25.74671792 -0.5 31.5 C0.16 31.5 0.82 31.5 1.5 31.5 C1.83 34.8 2.16 38.1 2.5 41.5 C3.16 41.5 3.82 41.5 4.5 41.5 C4.74234375 42.03109375 4.9846875 42.5621875 5.234375 43.109375 C7.39532491 47.75375038 7.39532491 47.75375038 10.8125 51.5 C12.5 53.5 12.5 53.5 12.52734375 55.515625 C12.27802968 57.5241834 11.89693365 59.51533175 11.5 61.5 C10.84 61.5 10.18 61.5 9.5 61.5 C7.10470215 78.68235171 7.10470215 78.68235171 12.2109375 94.8125 C13.40967487 96.63787854 13.40967487 96.63787854 15.5 97.5 C15.54898438 96.93152344 15.59796875 96.36304688 15.6484375 95.77734375 C16.83431918 83.5300485 16.83431918 83.5300485 20.5 79.0625 C22.5 77.5 22.5 77.5 24.5 77.5 C24.86182373 78.29265259 24.86182373 78.29265259 25.23095703 79.10131836 C31.00667 92.03524635 31.00667 92.03524635 38.50390625 104.00390625 C39.5 105.5 39.5 105.5 39.5 107.5 C33.50868049 105.55101654 30.78438445 101.69745375 27.5 96.5 C26.51185451 94.1163157 25.98795469 92.04820784 25.5 89.5 C24.51 89.5 23.52 89.5 22.5 89.5 C22.53480469 90.09167969 22.56960938 90.68335938 22.60546875 91.29296875 C22.73416333 95.04962493 22.67941823 97.98285334 21.4375 101.5625 C19.5 103.5 19.5 103.5 16.1875 104.1875 C12.41850747 103.48480648 10.34287272 102.61690082 7.7890625 99.71484375 C2.13174192 89.99453838 2.83724088 77.03581895 3.91015625 66.22265625 C4.98660518 55.64905064 4.98660518 55.64905064 0.62890625 46.1640625 C-0.5 44.5 -0.5 44.5 -0.5 41.5 C-1.16 41.5 -1.82 41.5 -2.5 41.5 C-2.6959375 40.62859375 -2.891875 39.7571875 -3.09375 38.859375 C-5.49152338 29.30962241 -8.91015808 19.22656128 -17.5 13.5 C-18.20702355 9.78812638 -18.07251403 6.22684612 -17.5 2.5 C-13.03455036 -3.50044795 -6.26930647 -2.31908859 0 0 Z " fill="#E7EEF3" transform="translate(300.5,104.5)"/>
<path d="M0 0 C0.7734375 -0.00257813 1.546875 -0.00515625 2.34375 -0.0078125 C4.5 0.125 4.5 0.125 7.5 1.125 C7.5 1.785 7.5 2.445 7.5 3.125 C8.056875 3.16625 8.61375 3.2075 9.1875 3.25 C12.64400787 4.55786784 14.70273853 6.98520587 16.5 10.125 C16.8125 13.5 16.8125 13.5 16.5 16.125 C17.16 16.125 17.82 16.125 18.5 16.125 C19.71928905 21.5476436 19.68396736 26.77684629 19.6875 32.3125 C19.69974609 33.30314453 19.71199219 34.29378906 19.72460938 35.31445312 C19.74439065 45.3699367 19.06129866 53.45921802 12.3515625 61.2734375 C8.60647277 65.01852723 5.25060272 66.26403047 0.0625 66.5625 C-4.81239969 66.38164369 -7.58715417 65.02050591 -11.5 62.125 C-13.75709039 59.13981593 -14.5 57.87581172 -14.5 54.125 C-15.16 54.125 -15.82 54.125 -16.5 54.125 C-16.5 52.475 -16.5 50.825 -16.5 49.125 C-17.16 49.125 -17.82 49.125 -18.5 49.125 C-18.65002847 44.62683873 -18.75798807 40.13005987 -18.82958984 35.63012695 C-18.85948247 34.10447782 -18.90021394 32.57899629 -18.95263672 31.05395508 C-19.28856519 21.01891535 -18.83746366 13.4775334 -12.5 5.125 C-8.56695224 1.28341847 -5.45054631 -0.01816849 0 0 Z " fill="#48799D" transform="translate(316.5,251.875)"/>
<path d="M0 0 C1.125 4.75 1.125 4.75 0 7 C-0.66 7 -1.32 7 -2 7 C-2 7.66 -2 8.32 -2 9 C-3.32 9 -4.64 9 -6 9 C-6 8.34 -6 7.68 -6 7 C-12.6 7 -19.2 7 -26 7 C-26 7.66 -26 8.32 -26 9 C-26.639375 9.556875 -27.27875 10.11375 -27.9375 10.6875 C-30.79947239 13.89637813 -31.14312716 15.70618512 -31 20 C-28.15738315 26.13225811 -23.9319713 29.04254564 -17.7578125 31.40625 C-17.17773438 31.6021875 -16.59765625 31.798125 -16 32 C-16 32.66 -16 33.32 -16 34 C-14.824375 34.2784375 -14.824375 34.2784375 -13.625 34.5625 C-5.70332233 37.70385494 1.00349217 42.75611129 5.25 50.1875 C6.71330206 55.67488272 6.57454162 61.54578784 5 67 C4.34 67 3.68 67 3 67 C3 67.99 3 68.98 3 70 C2.34 70 1.68 70 1 70 C0.731875 70.598125 0.46375 71.19625 0.1875 71.8125 C-1.80166657 75.4767542 -4.14026203 77.43198145 -8 79 C-8.99 79 -9.98 79 -11 79 C-11 79.66 -11 80.32 -11 81 C-15.02082379 81.95010014 -18.80999747 82.16509228 -22.9375 82.1875 C-24.12214844 82.20167969 -25.30679688 82.21585937 -26.52734375 82.23046875 C-30.04662652 81.99690555 -32.71570744 81.24134349 -36 80 C-37.28866931 79.61482578 -38.5798124 79.23765253 -39.875 78.875 C-40.90625 78.58625 -41.9375 78.2975 -43 78 C-43 77.34 -43 76.68 -43 76 C-43.99 75.67 -44.98 75.34 -46 75 C-45.45276317 71.62537285 -44.9451 69.91765 -43 67 C-42.01 67 -41.02 67 -40 67 C-40 67.66 -40 68.32 -40 69 C-38.68 69 -37.36 69 -36 69 C-36 69.66 -36 70.32 -36 71 C-24.05237963 71.97039055 -24.05237963 71.97039055 -13.3828125 67.38671875 C-10.62855888 64.62468475 -10.00338634 63.03499216 -9.625 59.125 C-9.71650039 54.98460745 -10.99493877 52.91667708 -14 50 C-14.66 49.67 -15.32 49.34 -16 49 C-16 48.34 -16 47.68 -16 47 C-16.763125 46.79375 -17.52625 46.5875 -18.3125 46.375 C-23.49898594 44.44105609 -28.19033084 41.7214854 -33 39 C-33 38.34 -33 37.68 -33 37 C-33.99 37 -34.98 37 -36 37 C-36.66 36.01 -37.32 35.02 -38 34 C-38.99 33.67 -39.98 33.34 -41 33 C-45.31126426 26.47151412 -45.87183114 20.71889518 -45 13 C-43.78947277 7.87853864 -41.04339552 4.33580131 -37 1 C-36.01 1 -35.02 1 -34 1 C-34 0.34 -34 -0.32 -34 -1 C-21.95639475 -5.99586588 -12.03113065 -3.93426754 0 0 Z " fill="#E18831" transform="translate(272,246)"/>
<path d="M0 0 C4.29 0 8.58 0 13 0 C16 6.5 16 6.5 16 11 C16.66 11 17.32 11 18 11 C18.14695313 12.01707031 18.14695313 12.01707031 18.296875 13.0546875 C19.23490712 18.89312878 20.66227061 23.95241247 22.98046875 29.37890625 C25.30328743 35.35059718 27 41.58601815 27 48 C27.66 48 28.32 48 29 48 C29.13792969 47.2678125 29.27585938 46.535625 29.41796875 45.78125 C29.93796663 43.2964279 30.56911049 40.92536019 31.3125 38.5 C31.57675781 37.62214844 31.84101563 36.74429688 32.11328125 35.83984375 C32.71021989 33.9280623 33.33321699 32.02424506 33.98046875 30.12890625 C37.15716466 20.57447602 38.61462329 10.93902837 40 1 C43.96 1 47.92 1 52 1 C51.125 11.875 51.125 11.875 50 13 C49.62831518 15.160418 49.30208609 17.32875622 49 19.5 C48.11111111 25.88888889 48.11111111 25.88888889 47 27 C46.67647018 28.53529607 46.39127349 30.07874517 46.125 31.625 C45.50776984 34.87822059 44.80323681 37.79455476 43.4375 40.8125 C42.17341424 43.61547277 41.45763494 45.97960943 41 49 C40.34 49 39.68 49 39 49 C38.92265625 49.66128906 38.8453125 50.32257813 38.765625 51.00390625 C37.73128232 55.05156356 35.81952402 58.33090232 33.75 61.9375 C33.17572266 62.97293945 33.17572266 62.97293945 32.58984375 64.02929688 C30.09939093 68.42298873 27.45074474 72.30029213 24 76 C23.34 76 22.68 76 22 76 C22 76.66 22 77.32 22 78 C19.525 78.99 19.525 78.99 17 80 C17 80.66 17 81.32 17 82 C13.9489365 83.01702117 11.75800939 83.16582083 8.5625 83.1875 C7.61503906 83.20167969 6.66757813 83.21585937 5.69140625 83.23046875 C2.95498356 82.99614518 1.33571877 82.39701383 -1 81 C-1 79.02 -1 77.04 -1 75 C3.62 74.67 8.24 74.34 13 74 C13.66 72.35 14.32 70.7 15 69 C15.99 68.505 15.99 68.505 17 68 C19.90617209 58.97449372 16.50959978 47.92079653 12.9453125 39.51171875 C12.29487672 38.25370536 11.6254791 37.0052331 10.93359375 35.76953125 C9.13873424 32.36755903 8.15220858 28.65725909 7 25 C6.3147486 22.95757753 5.62714533 20.915943 4.9375 18.875 C2.83812091 12.56083692 1.09852898 6.59117386 0 0 Z " fill="#F8FAFB" transform="translate(164,265)"/>
<path d="M0 0 C4.29 0 8.58 0 13 0 C14 1 14 1 14.12025452 3.85365295 C14.1169236 5.76893044 14.1169236 5.76893044 14.11352539 7.72290039 C14.11367142 8.4253035 14.11381744 9.1277066 14.1139679 9.85139465 C14.11326872 12.18351278 14.10547617 14.515552 14.09765625 16.84765625 C14.09579208 18.46048438 14.09436818 20.07331307 14.09336853 21.68614197 C14.08954323 25.93915357 14.07971285 30.19213124 14.06866455 34.44512939 C14.05845069 38.7817743 14.05387096 43.11842467 14.04882812 47.45507812 C14.03809059 55.97006942 14.0204937 64.48502659 14 73 C22.58 73 31.16 73 40 73 C40 76.63 40 80.26 40 84 C26.8 84 13.6 84 0 84 C0 56.28 0 28.56 0 0 Z " fill="#D98736" transform="translate(362,243)"/>
<path d="M0 0 C0.66 0 1.32 0 2 0 C5.57403636 20.71553116 5.20216992 42.04171806 5 63 C4.67 63 4.34 63 4 63 C2.75454682 53.78364643 2.66360667 44.536616 2.44775391 35.25292969 C2.39625345 33.09558018 2.33901268 30.93843947 2.28125 28.78125 C2.25095703 27.50314453 2.22066406 26.22503906 2.18945312 24.90820312 C2.3281393 22.10825779 2.3281393 22.10825779 1 21 C0.54540142 18.34536879 0.29756762 15.67810862 0 13 C-3.0745356 13.7763932 -3.0745356 13.7763932 -5 16 C-5 14.68 -5 13.36 -5 12 C-4.34 12 -3.68 12 -3 12 C-2.87625 11.319375 -2.7525 10.63875 -2.625 9.9375 C-1.90899123 6.5722588 -0.97054875 3.29986575 0 0 Z " fill="#87A9C2" transform="translate(138,263)"/>
<path d="M0 0 C0.99 0 1.98 0 3 0 C3.33 1.98 3.66 3.96 4 6 C4.66 6 5.32 6 6 6 C6.33 4.35 6.66 2.7 7 1 C8.32 0.67 9.64 0.34 11 0 C11 3.63 11 7.26 11 11 C9.68 10.67 8.36 10.34 7 10 C6.01 10.33 5.02 10.66 4 11 C4 10.01 4 9.02 4 8 C3.34 8 2.68 8 2 8 C2 8.99 2 9.98 2 11 C1.01 11 0.02 11 -1 11 C-1.02688151 9.35425434 -1.04634123 7.70838587 -1.0625 6.0625 C-1.07410156 5.14597656 -1.08570313 4.22945313 -1.09765625 3.28515625 C-1 1 -1 1 0 0 Z " fill="#B9844D" transform="translate(419,316)"/>
<path d="M0 0 C4.62 0 9.24 0 14 0 C14 1.98 14 3.96 14 6 C13.67 6 13.34 6 13 6 C13 4.35 13 2.7 13 1 C9.04 1 5.08 1 1 1 C1.02835938 1.99902344 1.05671875 2.99804688 1.0859375 4.02734375 C0.99896093 8.04803351 0.43998169 11.62880123 -0.375 15.5625 C-0.63023437 16.82191406 -0.88546875 18.08132813 -1.1484375 19.37890625 C-1.92330676 22.67387783 -2.87011658 25.81176374 -4 29 C-5.53166168 24.91556885 -4.63081652 21.20544343 -4 17 C-3.34 17 -2.68 17 -2 17 C-2.02320313 16.35933594 -2.04640625 15.71867187 -2.0703125 15.05859375 C-2.18440863 9.59012904 -1.79791904 5.16901723 0 0 Z " fill="#95B3C9" transform="translate(203,265)"/>
<path d="M0 0 C1.32 0 2.64 0 4 0 C4 0.66 4 1.32 4 2 C6.97 2.33 9.94 2.66 13 3 C13 3.66 13 4.32 13 5 C19.93 5 26.86 5 34 5 C34 5.33 34 5.66 34 6 C29.97917621 6.95010014 26.19000253 7.16509228 22.0625 7.1875 C20.87785156 7.20167969 19.69320312 7.21585937 18.47265625 7.23046875 C14.95337348 6.99690555 12.28429256 6.24134349 9 5 C7.71133069 4.61482578 6.4201876 4.23765253 5.125 3.875 C4.09375 3.58625 3.0625 3.2975 2 3 C2 2.34 2 1.68 2 1 C1.34 0.67 0.68 0.34 0 0 Z " fill="#A7825A" transform="translate(227,321)"/>
<path d="M0 0 C0.66 0 1.32 0 2 0 C2.33 7.26 2.66 14.52 3 22 C2.34 21.67 1.68 21.34 1 21 C0.40644386 18.35139573 0.25790731 15.70802678 0 13 C-3.0745356 13.7763932 -3.0745356 13.7763932 -5 16 C-5 14.68 -5 13.36 -5 12 C-4.34 12 -3.68 12 -3 12 C-2.87625 11.319375 -2.7525 10.63875 -2.625 9.9375 C-1.90899123 6.5722588 -0.97054875 3.29986575 0 0 Z " fill="#6993B3" transform="translate(138,263)"/>
<path d="M0 0 C0.625 2.375 0.625 2.375 1 5 C0.34 5.66 -0.32 6.32 -1 7 C-1.33 5.02 -1.66 3.04 -2 1 C-3.134375 0.855625 -4.26875 0.71125 -5.4375 0.5625 C-9 0 -9 0 -10 -1 C-11.41327947 -1.15620555 -12.8335459 -1.25056173 -14.25390625 -1.31640625 C-15.10791016 -1.35830078 -15.96191406 -1.40019531 -16.84179688 -1.44335938 C-17.73962891 -1.48267578 -18.63746094 -1.52199219 -19.5625 -1.5625 C-20.46419922 -1.60568359 -21.36589844 -1.64886719 -22.29492188 -1.69335938 C-24.52978485 -1.79978142 -26.76476308 -1.90179988 -29 -2 C-19.66221948 -6.92561167 -9.41120136 -3.07753154 0 0 Z " fill="#AE8355" transform="translate(272,246)"/>
<path d="M0 0 C2 1 2 1 2.74609375 2.8984375 C3.49983621 5.59828337 4.24977106 8.29917582 5 11 C5.29519531 11.91007812 5.59039062 12.82015625 5.89453125 13.7578125 C7.82594437 19.94891756 8.74479454 25.62428463 7 32 C6.01 32.495 6.01 32.495 5 33 C5.02320313 32.18917969 5.04640625 31.37835938 5.0703125 30.54296875 C5.19154029 23.10477802 4.62918925 16.25861997 3 9 C2.34 9 1.68 9 1 9 C0.67 6.03 0.34 3.06 0 0 Z " fill="#8DADC5" transform="translate(175,301)"/>
<path d="M0 0 C5.94 0 11.88 0 18 0 C18.22786458 3.35286458 18.45572917 6.70572917 18.68359375 10.05859375 C18.67656114 12.88570244 18.67656114 12.88570244 20 14 C20.07271741 16.35313555 20.08370868 18.70833668 20.0625 21.0625 C20.05347656 22.35285156 20.04445312 23.64320313 20.03515625 24.97265625 C20.02355469 25.97167969 20.01195312 26.97070312 20 28 C19.67 28 19.34 28 19 28 C18.93941406 27.22914063 18.87882812 26.45828125 18.81640625 25.6640625 C18.69072266 24.15972656 18.69072266 24.15972656 18.5625 22.625 C18.48128906 21.62726563 18.40007812 20.62953125 18.31640625 19.6015625 C18.15034374 17.02072387 18.15034374 17.02072387 17 15 C16.86003931 10.33091139 16.95752715 5.67201378 17 1 C11.39 1 5.78 1 0 1 C0 0.67 0 0.34 0 0 Z " fill="#8FAFC6" transform="translate(134,243)"/>
<path d="M0 0 C0.66 0 1.32 0 2 0 C2 4.29 2 8.58 2 13 C1.34 13 0.68 13 0 13 C0 13.66 0 14.32 0 15 C-0.66 15 -1.32 15 -2 15 C-1.85930804 12.87465341 -1.71229079 10.74972471 -1.5625 8.625 C-1.48128906 7.44164062 -1.40007812 6.25828125 -1.31640625 5.0390625 C-1 2 -1 2 0 0 Z " fill="#3C6A8B" transform="translate(2,209)"/>
<path d="M0 0 C0.33 0 0.66 0 1 0 C1 2.64 1 5.28 1 8 C0.34 8 -0.32 8 -1 8 C-1 9.65 -1 11.3 -1 13 C-1.66 13 -2.32 13 -3 13 C-3.103125 14.2375 -3.20625 15.475 -3.3125 16.75 C-3.73801682 20.2792866 -4.48112592 22.37160966 -7 25 C-6.85433594 24.278125 -6.70867187 23.55625 -6.55859375 22.8125 C-6.20728157 21.04365548 -5.86482454 19.27300592 -5.53515625 17.5 C-4.70998587 13.13546243 -3.89187727 9.05402272 -2 5 C-1.34 5 -0.68 5 0 5 C0 3.35 0 1.7 0 0 Z " fill="#8EAEC6" transform="translate(125,301)"/>
<path d="M0 0 C4.44936709 -0.36075949 4.44936709 -0.36075949 6.8125 1.1875 C8.36678206 3.55982525 8.22537188 5.22041345 8 8 C7.01 8.33 6.02 8.66 5 9 C5 8.01 5 7.02 5 6 C4.34 6 3.68 6 3 6 C0 2.53846154 0 2.53846154 0 0 Z " fill="#D8E3EB" transform="translate(312,128)"/>
<path d="M0 0 C2.64 0 5.28 0 8 0 C8 0.66 8 1.32 8 2 C7.01 2.495 7.01 2.495 6 3 C5.59270772 5.32156597 5.25561323 7.6568787 5 10 C4.34 10 3.68 10 3 10 C3 7.36 3 4.72 3 2 C2.01 2 1.02 2 0 2 C0 1.34 0 0.68 0 0 Z " fill="#BF8549" transform="translate(408,316)"/>
<path d="M0 0 C1.15224028 0.92961422 2.29659176 1.8690125 3.4375 2.8125 C4.07558594 3.33457031 4.71367187 3.85664063 5.37109375 4.39453125 C7 6 7 6 8 9 C4.40094092 8.44449305 3.00090201 7.25112752 0.75 4.4375 C0.22921875 3.79683594 -0.2915625 3.15617188 -0.828125 2.49609375 C-1.21484375 2.00238281 -1.6015625 1.50867188 -2 1 C-1.34 0.67 -0.68 0.34 0 0 Z " fill="#87A9C2" transform="translate(340,211)"/>
<path d="M0 0 C0.66 0.99 1.32 1.98 2 3 C0.95204462 7.97778804 -2.13556514 10.05966912 -6 13 C-4.31326082 8.50202887 -2.18326108 4.27113698 0 0 Z " fill="#789EBB" transform="translate(201,319)"/>
<path d="M0 0 C2 2 2 2 2.125 4.625 C2.08375 5.40875 2.0425 6.1925 2 7 C2.66 7 3.32 7 4 7 C4 8.32 4 9.64 4 11 C4.66 11 5.32 11 6 11 C6.33 13.64 6.66 16.28 7 19 C3.86322373 17.43161186 3.46255562 14.33319141 2.375 11.1875 C2.14554687 10.55779297 1.91609375 9.92808594 1.6796875 9.27929688 C0.50632841 5.9512873 0 3.57857128 0 0 Z " fill="#92B1C8" transform="translate(98,299)"/>
<path d="M0 0 C0.99 0 1.98 0 3 0 C3 3.63 3 7.26 3 11 C1.35 10.67 -0.3 10.34 -2 10 C-1.34 8.35 -0.68 6.7 0 5 C0.66 5 1.32 5 2 5 C2 3.68 2 2.36 2 1 C1.34 0.67 0.68 0.34 0 0 Z " fill="#A3825D" transform="translate(427,316)"/>
<path d="M0 0 C0.99 0 1.98 0 3 0 C3.66 2.31 4.32 4.62 5 7 C4.34 6.67 3.68 6.34 3 6 C3 5.01 3 4.02 3 3 C2.34 3 1.68 3 1 3 C1 5.64 1 8.28 1 11 C0.34 11 -0.32 11 -1 11 C-0.67 7.37 -0.34 3.74 0 0 Z " fill="#7EA2BE" transform="translate(323,194)"/>
<path d="M0 0 C0.33 0 0.66 0 1 0 C1 2.97 1 5.94 1 9 C0.34 9 -0.32 9 -1 9 C-1 10.65 -1 12.3 -1 14 C-1.99 14.495 -1.99 14.495 -3 15 C-2.5547115 9.72684667 -1.91626837 4.98229776 0 0 Z " fill="#6D96B5" transform="translate(212,286)"/>
<path d="M0 0 C1.33332095 2.6666419 0.67102033 4.16680303 0 7 C-0.66 7 -1.32 7 -2 7 C-2 8.65 -2 10.3 -2 12 C-2.99 12.33 -3.98 12.66 -5 13 C-5 12.01 -5 11.02 -5 10 C-4.34 10 -3.68 10 -3 10 C-2.87625 9.278125 -2.7525 8.55625 -2.625 7.8125 C-2.0095069 5.04278106 -1.11555626 2.6029646 0 0 Z " fill="#B5C9D9" transform="translate(196,303)"/>
<path d="M0 0 C2 1 2 1 2.88671875 3.21484375 C3.15097656 4.11332031 3.41523438 5.01179688 3.6875 5.9375 C3.95949219 6.83339844 4.23148438 7.72929687 4.51171875 8.65234375 C5 11 5 11 4 13 C3.67 11.68 3.34 10.36 3 9 C2.34 9 1.68 9 1 9 C0.67 6.03 0.34 3.06 0 0 Z " fill="#9EB9CE" transform="translate(175,301)"/>
<path d="M0 0 C0.33 0 0.66 0 1 0 C0.67 2.97 0.34 5.94 0 9 C-0.99 9 -1.98 9 -3 9 C-3.33 7.68 -3.66 6.36 -4 5 C-2.68 4.67 -1.36 4.34 0 4 C0 2.68 0 1.36 0 0 Z " fill="#86A8C2" transform="translate(116,294)"/>
<path d="M0 0 C0.33 0 0.66 0 1 0 C1 3.3 1 6.6 1 10 C0.34 10 -0.32 10 -1 10 C-1 11.65 -1 13.3 -1 15 C-1.33 15 -1.66 15 -2 15 C-2.19392201 9.47322267 -1.7479503 5.24385089 0 0 Z " fill="#8DADC5" transform="translate(215,271)"/>
<path d="M0 0 C0 2.31 0 4.62 0 7 C-0.99 7.33 -1.98 7.66 -3 8 C-3 5.69 -3 3.38 -3 1 C-1 0 -1 0 0 0 Z " fill="#F8FAFB" transform="translate(308,169)"/>
<path d="M0 0 C0.99 0.33 1.98 0.66 3 1 C2.67 1.66 2.34 2.32 2 3 C1.34 3 0.68 3 0 3 C0 3.99 0 4.98 0 6 C-0.66 6 -1.32 6 -2 6 C-2.33 6.66 -2.66 7.32 -3 8 C-2.25 2.25 -2.25 2.25 0 0 Z " fill="#315773" transform="translate(446,403)"/>
<path d="M0 0 C0.66 0.33 1.32 0.66 2 1 C1.67 1.66 1.34 2.32 1 3 C0.01 3 -0.98 3 -2 3 C-2 3.66 -2 4.32 -2 5 C-2.99 5.33 -3.98 5.66 -5 6 C-4.75 4.125 -4.75 4.125 -4 2 C-2.0625 0.6875 -2.0625 0.6875 0 0 Z " fill="#325A76" transform="translate(408,443)"/>
<path d="M0 0 C0.33 1.32 0.66 2.64 1 4 C1.66 4 2.32 4 3 4 C3.33 6.64 3.66 9.28 4 12 C2 11 2 11 0.875 8.8125 C-0.08328236 5.73230669 -0.14915816 3.20690052 0 0 Z " fill="#ACC3D5" transform="translate(166,271)"/>
<path d="M0 0 C0.33 0.99 0.66 1.98 1 3 C-1 5 -1 5 -3.1640625 5.1953125 C-4.38222656 5.16050781 -4.38222656 5.16050781 -5.625 5.125 C-6.44226563 5.10695312 -7.25953125 5.08890625 -8.1015625 5.0703125 C-8.72804688 5.04710937 -9.35453125 5.02390625 -10 5 C-10 4.67 -10 4.34 -10 4 C-7.69 4 -5.38 4 -3 4 C-3 3.34 -3 2.68 -3 2 C-2.01 2 -1.02 2 0 2 C0 1.34 0 0.68 0 0 Z " fill="#7EA2BE" transform="translate(424,216)"/>
<path d="M0 0 C1.32 0.33 2.64 0.66 4 1 C3.67 2.32 3.34 3.64 3 5 C3 4.34 3 3.68 3 3 C2.34 3 1.68 3 1 3 C1 4.65 1 6.3 1 8 C0.67 8 0.34 8 0 8 C0 5.36 0 2.72 0 0 Z " fill="#C3D4E0" transform="translate(85,261)"/>
<path d="M0 0 C2.475 0.495 2.475 0.495 5 1 C5.625 3.375 5.625 3.375 6 6 C5.34 6.66 4.68 7.32 4 8 C3.67 6.02 3.34 4.04 3 2 C2.01 1.67 1.02 1.34 0 1 C0 0.67 0 0.34 0 0 Z " fill="#9A8163" transform="translate(267,245)"/>
</svg>
