<?xml version="1.0" encoding="UTF-8"?>
<svg version="1.1" xmlns="http://www.w3.org/2000/svg" width="1250" height="657">
<path d="M0 0 C3.26444295 0.00563832 6.5288807 0.00846006 9.79332733 0.0110817 C39.73687207 0.04604911 69.56884613 0.23473207 99.40251923 3.06482315 C102.24642185 3.33250355 105.09135436 3.58620935 107.93669891 3.83807755 C190.6002568 11.23169226 271.6579548 27.55736995 350.12480927 54.63965225 C351.96434158 55.27372785 353.80544412 55.9032429 355.64665985 56.53241348 C372.49006205 62.30808174 388.83020797 69.07541197 405.09294891 76.31805801 C406.20347626 76.81209122 407.3140036 77.30612442 408.45818329 77.81512833 C452.74814073 97.63181041 494.86408196 122.04580977 532.09294891 153.31805801 C533.09841766 154.13790176 534.10388641 154.95774551 535.13982391 155.80243301 C542.77961911 162.10632022 549.88266898 168.89847198 556.90544891 175.88055801 C557.77669403 176.74261856 558.64793915 177.60467911 559.54558563 178.4928627 C565.48326015 184.45877421 570.86377064 190.72675951 576.09294891 197.31805801 C577.07008635 198.52177365 578.04783652 199.7249925 579.02654266 200.92743301 C598.88958703 225.69754608 614.77228704 254.23107052 622.09294891 285.31805801 C622.28614716 286.09181778 622.4793454 286.86557755 622.67839813 287.66278458 C628.49452589 311.73443172 629.1661689 341.18887673 623.09294891 365.31805801 C622.89427216 366.13371231 622.6955954 366.94936661 622.49089813 367.7897377 C616.15554525 393.19758741 605.56589749 418.09559849 590.09294891 439.31805801 C589.44205292 440.2193544 589.44205292 440.2193544 588.77800751 441.1388588 C576.33173321 458.31599825 562.43649622 476.05719313 546.05779266 489.66571426 C543.61611103 491.71905687 541.30367913 493.89504921 538.96794891 496.06805801 C532.61795506 501.85030826 525.91442484 507.10671847 519.09294891 512.31805801 C518.45164032 512.81096329 517.81033173 513.30386856 517.14958954 513.81171036 C507.71638796 521.04957405 498.10963619 527.91117552 488.09294891 534.31805801 C487.31854462 534.81418594 486.54414032 535.31031387 485.74626923 535.82147598 C473.30264379 543.75190734 460.59941991 551.06007071 447.57390594 557.98944473 C445.40039531 559.15341294 443.24207933 560.33946564 441.08904266 561.54071426 C370.51843755 600.55484079 288.81019004 622.82713356 -253.90705109 626.31805801 C-254.66336823 626.13843521 -255.41968536 625.95881241 -256.1989212 625.77374649 C-308.74154631 613.24025099 -359.73674864 595.65245596 -408.90705109 573.31805801 C-409.75267609 572.93585098 -410.59830109 572.55364395 -411.46955109 572.15985489 C-424.63142969 566.18005908 -437.30817459 559.3996143 -449.90705109 552.31805801 C-450.7483255 551.84577774 -451.58959991 551.37349747 -452.45636749 550.88690567 C-483.67712609 533.28010111 -512.43335734 512.47021246 -538.90705109 488.31805801 C-539.91959423 487.40997301 -540.93263827 486.50244629 -541.94611359 485.59540176 C-546.96112789 481.08570407 -551.81669149 476.56340346 -556.15314484 471.38055801 C-558.22160795 468.94815595 -560.40892976 466.64569277 -562.59455109 464.31805801 C-593.18920877 430.66393457 -617.65668073 384.26064233 -618.14533234 338.03290176 C-618.15512619 337.26284302 -618.16492004 336.49278427 -618.17501068 335.69939041 C-618.34816474 318.54916554 -618.15648193 302.04691306 -613.90705109 285.31805801 C-613.70337921 284.48822403 -613.49970734 283.65839005 -613.28986359 282.80340958 C-600.81691608 233.3543322 -566.44904353 186.72573828 -526.58673859 155.43915176 C-524.14254933 153.50446551 -521.78471768 151.49417806 -519.43488312 149.44672012 C-495.51068919 128.70678719 -467.66063783 112.36241607 -439.90705109 97.31805801 C-438.64755646 96.63187393 -438.64755646 96.63187393 -437.36261749 95.93182755 C-411.77298885 82.05827679 -385.15122307 70.52387337 -357.90705109 60.31805801 C-356.81489288 59.90636368 -355.72273468 59.49466934 -354.59748077 59.07049942 C-273.70089826 28.7732774 -188.02407328 11.90844205 -102.15705109 4.13055801 C-101.29505096 4.05156265 -100.43305084 3.97256729 -99.5449295 3.89117813 C-93.00360731 3.29949129 -86.45790596 2.79178724 -79.90705109 2.31805801 C-78.71460785 2.22978745 -77.52216461 2.14151688 -76.29358673 2.05057144 C-50.86691715 0.22271303 -25.48521367 -0.04469654 0 0 Z " fill="#7579B0" transform="translate(619.9070510864258,1.6819419860839844)"/>
<path d="M0 0 C1.74681797 0.00358051 3.49364179 0.0049338 5.24046326 0.00416565 C8.89301976 0.00884629 12.54468832 0.0336048 16.19702148 0.07397461 C20.86993258 0.12498181 25.54187089 0.13641573 30.21502781 0.13413906 C33.81911948 0.13495621 37.4230001 0.1514318 41.02702141 0.17314339 C42.74972883 0.18266319 44.47246005 0.18859618 46.19519234 0.19082451 C48.60523025 0.19735682 51.01425389 0.22367354 53.42407227 0.25561523 C54.13021164 0.25425568 54.83635101 0.25289612 55.56388855 0.25149536 C60.17059475 0.34041832 63.32981017 1.27537945 67.24609375 3.69140625 C70.60543462 7.49276566 71.57237363 10.15578788 71.45996094 15.18969727 C70.99433123 20.63639549 69.77949199 25.96835456 68.68359375 31.31640625 C68.13409495 34.05911867 67.59054044 36.8030011 67.046875 39.546875 C66.90332581 40.26792923 66.75977661 40.98898346 66.61187744 41.73188782 C64.7715046 51.01338718 63.07515499 60.3216112 61.37109375 69.62890625 C61.05790099 71.33610754 60.74466948 73.04330172 60.43139648 74.75048828 C59.70147406 78.73052311 58.97324878 82.71086493 58.24609375 86.69140625 C58.96145294 86.6994931 59.67681213 86.70757996 60.41384888 86.71591187 C67.26484616 86.79492401 74.11569046 86.88250112 80.96646309 86.97893333 C84.48574278 87.02818952 88.00500208 87.07450357 91.52441406 87.11328125 C171.89175858 88.0105572 171.89175858 88.0105572 198.24609375 114.69140625 C199.19935547 115.61179688 199.19935547 115.61179688 200.171875 116.55078125 C208.8785557 125.58565168 212.75680836 136.61753842 214.73828125 148.70703125 C215.08296955 151.60752463 215.08296955 151.60752463 216.24609375 153.69140625 C216.43719727 152.63977295 216.62830078 151.58813965 216.82519531 150.50463867 C218.80371623 139.63094672 220.80618028 128.76186349 222.83477783 117.8973999 C223.19356858 115.97311235 223.54987808 114.04836248 223.90576172 112.12353516 C224.3997761 109.47619162 224.91105192 106.83323797 225.43359375 104.19140625 C225.62840332 103.13022583 225.62840332 103.13022583 225.82714844 102.04760742 C226.9417763 96.60596148 228.94556158 92.38447914 233.48338795 89.04487324 C236.77371232 87.43292259 238.99295827 87.31663812 242.64860535 87.31718445 C243.94207382 87.31017014 245.2355423 87.30315582 246.56820679 87.29592896 C247.99493564 87.30335661 249.42166294 87.31108776 250.84838867 87.3190918 C252.35684968 87.31666258 253.86530908 87.31294199 255.37376404 87.30802917 C259.46967321 87.29862388 263.56534316 87.30804818 267.66123366 87.3213613 C271.96363454 87.33270493 276.26602412 87.32856535 280.56843567 87.32661438 C287.80730063 87.32573109 295.04607203 87.33680881 302.28491211 87.35522461 C310.611555 87.37628887 318.93805985 87.37992449 327.26472396 87.37366265 C335.30736852 87.36792729 343.34996525 87.37367004 351.39260292 87.3848362 C354.79681612 87.38943801 358.20099964 87.39037531 361.60521507 87.38825035 C395.51440182 87.3756082 395.51440182 87.3756082 410.24609375 89.69140625 C411.19761826 89.82904892 412.14914276 89.96669159 413.12950134 90.10850525 C430.29317971 92.66955733 448.36793031 99.15682674 462.24609375 109.69140625 C463.15101563 110.366875 464.0559375 111.04234375 464.98828125 111.73828125 C485.90836001 128.08028183 498.2245432 150.74437057 501.93261719 176.90478516 C505.76513006 210.97355608 497.31432237 245.74681183 481.24609375 275.69140625 C480.715 276.71621094 480.18390625 277.74101562 479.63671875 278.796875 C461.25778614 312.50674893 427.0599665 338.16533881 390.52734375 348.98022461 C369.97303637 354.47104261 347.82809859 355.86985602 326.63671875 355.7890625 C325.1741338 355.78719217 323.71154821 355.78577118 322.2489624 355.78477478 C318.44163209 355.78099796 314.63434131 355.77121034 310.82702637 355.7600708 C306.92505426 355.74975137 303.02307563 355.74525484 299.12109375 355.74023438 C291.49607593 355.72958258 283.87109043 355.712566 276.24609375 355.69140625 C276.05209991 356.97792587 276.05209991 356.97792587 275.85418701 358.29043579 C274.97132873 364.09628975 274.07986408 369.88856909 272.94921875 375.65234375 C272.7157373 376.85109131 272.48225586 378.04983887 272.24169922 379.28491211 C271.99564941 380.53280518 271.74959961 381.78069824 271.49609375 383.06640625 C270.96142852 385.78369525 270.42773282 388.50117343 269.89453125 391.21875 C269.75858551 391.91027664 269.62263977 392.60180328 269.48257446 393.31428528 C268.64436937 397.59621278 267.83586053 401.88257912 267.05212402 406.17480469 C266.538633 408.9854924 266.01650097 411.79454839 265.49401855 414.60357666 C265.13002349 416.58040942 264.77823473 418.55947742 264.42675781 420.53857422 C261.62449624 435.51775543 261.62449624 435.51775543 256.18359375 440.62890625 C252.09202056 442.87267219 248.30090043 442.86325162 243.76464844 442.90014648 C243.00492233 442.90993027 242.24519623 442.91971405 241.46244812 442.92979431 C238.9476394 442.95971308 236.43288375 442.98112455 233.91796875 443 C232.62784252 443.00985774 232.62784252 443.00985774 231.31165314 443.01991463 C226.75840397 443.05249377 222.20517806 443.07694743 217.65185547 443.09643555 C213.88816201 443.1142429 210.12521859 443.14905518 206.36181641 443.19897461 C201.81303849 443.25923731 197.26495552 443.2899193 192.71579742 443.29960823 C190.98544476 443.30815402 189.25511023 443.32695071 187.52498627 443.35635185 C172.28697476 443.60134617 172.28697476 443.60134617 167.75488281 439.84008789 C164.27329182 435.97591069 162.95753827 433.11584986 163.09738159 427.82336426 C163.32305203 424.58812174 163.89239227 421.47872078 164.53125 418.30078125 C164.66779999 417.60984375 164.80434998 416.91890625 164.94503784 416.20703125 C165.39258852 413.95036993 165.85058249 411.69596544 166.30859375 409.44140625 C166.62327253 407.8637652 166.9371428 406.28596268 167.25024414 404.70800781 C167.90625547 401.40497363 168.56579814 398.10267205 169.22753906 394.80078125 C170.75539469 387.15893527 172.23366991 379.50743486 173.71554565 371.85656738 C174.46210506 368.00426826 175.2115975 364.15254028 175.9609375 360.30078125 C176.209646 359.02170898 176.45835449 357.74263672 176.71459961 356.42480469 C176.88999268 355.5227832 177.06538574 354.62076172 177.24609375 353.69140625 C176.74274002 354.01508682 176.23938629 354.3387674 175.72077942 354.67225647 C172.37571576 356.04985401 169.21140488 355.9944853 165.65112305 355.99780273 C164.89125092 356.00612625 164.13137878 356.01444977 163.34848022 356.02302551 C160.83903867 356.04709955 158.32985725 356.0558948 155.8203125 356.0625 C154.07159855 356.07146903 152.32288537 356.08059092 150.57417297 356.08985901 C146.90823503 356.10634499 143.24238837 356.11404828 139.57641602 356.11694336 C134.88881765 356.1223237 130.20208243 356.15999052 125.51472759 356.20568752 C121.90207319 356.23549582 118.28962558 356.24266775 114.6768589 356.24366951 C112.94933943 356.24786512 111.22181897 356.26027295 109.49442101 356.28118706 C107.07205974 356.30817832 104.65168511 356.30325433 102.22924805 356.29077148 C101.1683622 356.31302292 101.1683622 356.31302292 100.08604431 356.33572388 C94.54602935 356.25481759 91.21641223 354.32056186 87.24609375 350.69140625 C83.49958167 345.36035247 84.88698414 338.09321018 85.79736328 332.00439453 C86.55461634 327.73805589 87.43211629 323.49701893 88.30859375 319.25390625 C88.62872061 317.66363579 88.94770774 316.07313553 89.265625 314.48242188 C89.9254626 311.18545763 90.5901389 307.88952518 91.25830078 304.59423828 C92.65042224 297.70937654 93.98254909 290.81298906 95.31564331 283.91650391 C96.03983455 280.17299227 96.7680864 276.43027104 97.49609375 272.6875 C97.640504 271.94466766 97.78491425 271.20183533 97.93370056 270.43649292 C99.09748981 264.4512099 100.26531536 258.46671862 101.43455505 252.48249817 C102.16228789 248.75545503 102.88707576 245.02788067 103.60571289 241.29907227 C103.89334444 239.80744527 104.18102363 238.31582746 104.46875 236.82421875 C104.68314476 235.71236458 104.68314476 235.71236458 104.90187073 234.57804871 C105.82135324 229.8290903 106.77125128 225.08708537 107.73814392 220.3475647 C112.85360622 196.23767365 112.85360622 196.23767365 113.24609375 171.69140625 C104.38638703 169.02703538 96.17301073 168.22682043 86.94921875 168.1796875 C85.63443542 168.1617363 84.3196521 168.1437851 82.96502686 168.12528992 C79.51286677 168.07831395 76.06076952 168.04816929 72.60839844 168.02185059 C69.06823305 167.99177637 65.52828348 167.94534042 61.98828125 167.90039062 C55.07434287 167.81495628 48.16033211 167.74734902 41.24609375 167.69140625 C41.19969254 168.35096313 41.15329132 169.01052002 41.10548401 169.69006348 C40.55018583 176.68369225 39.45124388 183.42145157 38.0234375 190.28515625 C37.80238846 191.37366379 37.58133942 192.46217133 37.35359192 193.58366394 C36.88041027 195.91241298 36.404776 198.2406648 35.92687988 200.56845093 C34.65895895 206.74860241 33.41127128 212.93282798 32.1640625 219.1171875 C31.9133902 220.35894241 31.6627179 221.60069733 31.40444946 222.88008118 C29.16213462 234.02718737 27.04965497 245.19568219 24.99609375 256.37890625 C24.35840879 259.84641604 23.72044066 263.31387352 23.08203125 266.78125 C22.92905075 267.61250397 22.77607025 268.44375793 22.61845398 269.30020142 C20.73688115 279.49466415 18.7579146 289.67019 16.75561523 299.84155273 C16.47241217 301.28107124 16.18928975 302.72060562 15.90625 304.16015625 C15.7678923 304.86362686 15.62953461 305.56709747 15.48698425 306.29188538 C14.63675349 310.63530989 13.81659516 314.9833295 13.01971436 319.33685303 C12.49623754 322.19569525 11.96454171 325.0529862 11.43267822 327.91027832 C11.07139576 329.87189647 10.72271947 331.83582349 10.37451172 333.79980469 C7.78283348 347.67612121 7.78283348 347.67612121 4.24609375 351.69140625 C-0.7578468 355.02748131 -4.44343202 356.28076553 -10.50585938 356.20898438 C-11.61706398 356.21949829 -11.61706398 356.21949829 -12.75071716 356.23022461 C-15.17925429 356.24771047 -17.606609 356.23621642 -20.03515625 356.22265625 C-21.73474347 356.22535389 -23.43432917 356.22923858 -25.13391113 356.23425293 C-28.6878943 356.2401352 -32.24147406 356.23162635 -35.79541016 356.21289062 C-40.33827071 356.19010155 -44.88018586 356.2032315 -49.42301178 356.22718048 C-52.93018648 356.24167306 -56.43713909 356.2370167 -59.94432068 356.22666931 C-61.61877048 356.22401157 -63.29324081 356.22723811 -64.96766663 356.23658752 C-67.31296776 356.24681077 -69.65676339 356.23117392 -72.00195312 356.20898438 C-72.68579575 356.2170813 -73.36963837 356.22517822 -74.07420349 356.23352051 C-79.42055254 356.14037347 -82.42977643 354.61430839 -86.75390625 351.69140625 C-90.93161265 346.39783212 -90.30462057 341.13949924 -89.75390625 334.69140625 C-88.94091597 328.78846135 -87.70884073 322.96157321 -86.50390625 317.12890625 C-86.18127849 315.52525228 -85.8595872 313.92140964 -85.53881836 312.31738281 C-84.62610605 307.77213276 -83.69289891 303.23128919 -82.75390625 298.69140625 C-82.39546631 296.95044678 -82.39546631 296.95044678 -82.02978516 295.17431641 C-80.96281213 290.00779043 -79.87545668 284.84635856 -78.75390625 279.69140625 C-79.16640625 280.36945313 -79.57890625 281.0475 -80.00390625 281.74609375 C-101.80968518 316.88844283 -135.19595348 341.41593795 -175.44921875 350.8515625 C-193.64936676 354.59102284 -212.1381507 355.85891287 -230.6796875 355.7890625 C-232.16326347 355.78719172 -233.64684006 355.78577094 -235.13041687 355.78477478 C-238.98869609 355.78100152 -242.84693618 355.77121721 -246.7052002 355.7600708 C-250.66088329 355.74974345 -254.61657286 355.74525318 -258.57226562 355.74023438 C-266.29949678 355.72958893 -274.02669598 355.71257695 -281.75390625 355.69140625 C-281.88323547 356.76732529 -282.0125647 357.84324432 -282.14581299 358.95176697 C-282.3213733 360.38965283 -282.49705954 361.82752331 -282.67285156 363.26538086 C-282.75737579 363.97139183 -282.84190002 364.6774028 -282.9289856 365.40480804 C-283.75266265 372.1039919 -285.06540193 378.66072221 -286.50390625 385.25390625 C-288.21007064 393.23807758 -289.87856691 401.22018976 -291.375 409.24609375 C-291.50703827 409.94977585 -291.63907654 410.65345795 -291.77511597 411.37846375 C-292.29151287 414.13347645 -292.80768197 416.88837167 -293.30578613 419.64675903 C-293.64914732 421.54718832 -294.00405483 423.44552031 -294.359375 425.34375 C-294.65557739 426.9678479 -294.65557739 426.9678479 -294.95776367 428.62475586 C-296.49060472 434.5290847 -298.67768875 438.26495944 -303.75390625 441.69140625 C-307.28366436 442.86799229 -310.48566547 442.85447822 -314.15942383 442.8684082 C-314.91100266 442.8749794 -315.66258148 442.8815506 -316.43693542 442.88832092 C-318.92410382 442.90803093 -321.41121191 442.91971112 -323.8984375 442.9296875 C-324.74873724 442.93376303 -325.59903698 442.93783855 -326.47510338 442.94203758 C-330.97534313 442.96288813 -335.47555248 442.97719446 -339.97583008 442.98657227 C-344.61968389 442.99763704 -349.26305859 443.0320404 -353.90674305 443.07174397 C-357.4815916 443.09790925 -361.05632594 443.10626399 -364.63126183 443.10985374 C-366.34285405 443.11471963 -368.05444118 443.12633373 -369.76593971 443.14489174 C-372.16441287 443.16928302 -374.56164544 443.16831875 -376.96020508 443.16137695 C-378.0148143 443.18059204 -378.0148143 443.18059204 -379.09072876 443.20019531 C-384.10235339 443.14748563 -386.94681742 441.91022088 -390.75390625 438.69140625 C-394.86561681 433.36465224 -394.23014568 428.13578993 -393.75390625 421.69140625 C-393.20846042 417.60902102 -392.41443167 413.60573142 -391.55859375 409.578125 C-391.33079727 408.45899216 -391.10300079 407.33985931 -390.86830139 406.18681335 C-390.13232325 402.58193494 -389.38052631 398.98055224 -388.62890625 395.37890625 C-388.11399298 392.86631889 -387.60041048 390.35345847 -387.08813477 387.84033203 C-386.08780334 382.93640669 -385.08292026 378.03345743 -384.07373047 373.13134766 C-382.56434836 365.78551098 -381.10630182 358.43107826 -379.69140625 351.06640625 C-379.47331299 349.93509277 -379.25521973 348.8037793 -379.03051758 347.63818359 C-376.59240874 334.93312865 -374.21131991 322.21715467 -371.81640625 309.50390625 C-365.88958056 278.04307254 -359.75480102 246.63160919 -353.46231079 215.24185181 C-350.07034893 198.32042316 -346.72628427 181.39195054 -343.47509766 164.44287109 C-341.33422474 153.30656328 -339.16640824 142.17545568 -336.99105835 131.0458374 C-336.08394791 126.39993002 -335.19123203 121.75144844 -334.3046875 117.1015625 C-333.87133964 114.86062952 -333.4377628 112.6197408 -333.00390625 110.37890625 C-332.81755615 109.38391113 -332.63120605 108.38891602 -332.43920898 107.36376953 C-329.97235205 94.74752674 -329.97235205 94.74752674 -325.19140625 90.31640625 C-321.41142017 87.79641553 -319.4261601 87.56466522 -314.88420105 87.55769348 C-313.63284866 87.5534285 -312.38149628 87.54916351 -311.09222412 87.54476929 C-309.69714352 87.54511887 -308.30206295 87.54558043 -306.90698242 87.54614258 C-305.44324152 87.54315132 -303.9795014 87.53974887 -302.51576233 87.53596497 C-298.52699044 87.52710378 -294.53824 87.52478558 -290.54945922 87.52414918 C-288.04970245 87.5234383 -285.54995111 87.52130297 -283.05019569 87.51865196 C-274.30518881 87.50938199 -265.56019718 87.50531794 -256.81518555 87.50610352 C-248.70850617 87.50670037 -240.60189419 87.49623053 -232.49523181 87.48035985 C-225.51062913 87.46718158 -218.52604814 87.46192409 -211.54143316 87.46255893 C-207.38189382 87.4628115 -203.22241398 87.46009715 -199.06288719 87.44938087 C-154.59948445 87.34281247 -154.59948445 87.34281247 -136.94140625 91.94140625 C-135.65061157 92.26564575 -135.65061157 92.26564575 -134.33374023 92.59643555 C-108.3977787 99.33819925 -83.84595268 113.00273997 -69.75390625 136.69140625 C-64.33573386 146.502482 -59.19533981 156.44822448 -57.75390625 167.69140625 C-55.62757386 165.56507386 -55.677869 161.37663823 -55.15234375 158.453125 C-54.99528458 157.59822479 -54.8382254 156.74332458 -54.67640686 155.86251831 C-54.33602205 154.00834394 -53.99733397 152.15385749 -53.66012573 150.29910278 C-52.76127122 145.35795905 -51.84893593 140.41930454 -50.9375 135.48046875 C-50.75298782 134.47917435 -50.56847565 133.47787994 -50.37837219 132.44624329 C-48.70279823 123.37157368 -46.96305478 114.31025209 -45.19140625 105.25390625 C-44.97831818 104.16352554 -44.97831818 104.16352554 -44.76092529 103.05111694 C-44.04594507 99.39340683 -43.32974006 95.73593833 -42.61279297 92.07861328 C-41.44542551 86.12040036 -40.28776916 80.16030394 -39.13012695 74.20019531 C-38.55052722 71.21621807 -37.9695892 68.2325065 -37.38745117 65.24902344 C-36.0230137 58.25198948 -34.66721989 51.25357544 -33.33911133 44.24954224 C-32.71461784 40.9588156 -32.0856269 37.66895542 -31.45629883 34.37915039 C-31.15896982 32.81805275 -30.86381921 31.25653834 -30.57104492 29.69458008 C-26.27155389 6.76479305 -26.27155389 6.76479305 -20.3453064 1.93821716 C-14.23066989 -1.00374282 -6.64958764 -0.08981943 0 0 Z " fill="#FAFAFA" transform="translate(578.75390625,83.30859375)"/>
<path d="M0 0 C20.37611189 -0.04682141 40.7522128 -0.0820384 61.12836742 -0.10362434 C70.59039806 -0.11391563 80.05239518 -0.1279347 89.5144043 -0.15087891 C97.76615066 -0.17087876 106.01787273 -0.18373203 114.26964265 -0.18817699 C118.63464353 -0.19077324 122.99957494 -0.19683034 127.36455345 -0.21146011 C131.48245191 -0.22514848 135.60025302 -0.22920017 139.71817207 -0.22621536 C141.22045803 -0.22676054 142.72274762 -0.23067039 144.22501373 -0.23841095 C153.32943756 -0.28297671 162.03118403 0.36469533 171 2 C172.28132812 2.18820313 173.56265625 2.37640625 174.8828125 2.5703125 C198.31714116 6.57955909 219.44880863 19.14408118 234 38 C250.23068639 61.73737885 251.69480404 90.44820713 247 118 C246.89236328 118.70060547 246.78472656 119.40121094 246.67382812 120.12304688 C241.01829808 156.197021 220.24326916 190.14833064 191 212 C190.00484375 212.74894531 189.0096875 213.49789062 187.984375 214.26953125 C170.20030709 227.12574783 150.31489379 234.775999 128.58428955 237.63392639 C126.78425662 237.88890732 124.98886573 238.17800008 123.19839478 238.49319458 C112.63802482 240.24906343 102.27901077 240.25675397 91.6015625 240.1953125 C89.67101184 240.1915734 87.74045926 240.18873068 85.80990601 240.18673706 C80.77614931 240.17917118 75.74251158 240.15958486 70.70880127 240.1373291 C65.55327971 240.11671722 60.39773856 240.10770283 55.2421875 240.09765625 C45.16140662 240.07633098 35.08071328 240.04228222 25 240 C24.93511163 240.6072268 24.87022326 241.2144536 24.80336857 241.84008121 C24.67266547 243.04351248 24.67266547 243.04351248 24.5393219 244.27125549 C24.45380853 245.06410729 24.36829515 245.8569591 24.28019047 246.67383671 C23.89053368 249.90879799 23.28700168 253.08205778 22.65234375 256.27734375 C22.51994293 256.95046097 22.38754211 257.62357819 22.25112915 258.3170929 C21.96531243 259.7684695 21.6778746 261.21952766 21.38894653 262.67028809 C20.60328956 266.61593994 19.82990302 270.56400466 19.0546875 274.51171875 C18.89067947 275.34518829 18.72667145 276.17865784 18.55769348 277.03738403 C16.51531524 287.43317211 14.54000475 297.84171425 12.5625 308.25 C11.386875 314.4375 10.21125 320.625 9 327 C-14.76 327 -38.52 327 -63 327 C-59.12211776 304.85298363 -55.01433003 282.78767653 -50.5625 260.75 C-47.17095026 243.95849951 -43.84940245 227.16054871 -40.75 210.3125 C-40.58912903 209.43830414 -40.42825806 208.56410828 -40.26251221 207.66342163 C-40.02356232 206.36472641 -40.02356232 206.36472641 -39.77978516 205.03979492 C-39.46392812 203.32339373 -39.14801093 201.60700361 -38.83203125 199.890625 C-38.67887451 199.05847977 -38.52571777 198.22633453 -38.36791992 197.36897278 C-36.77829264 188.75632609 -35.11682174 180.15804985 -33.4375 171.5625 C-33.29453491 170.83068512 -33.15156982 170.09887024 -33.00427246 169.34487915 C-32.29022971 165.69210863 -31.57485224 162.0396011 -30.85888672 158.38720703 C-29.54450409 151.67863253 -28.24208453 144.96773025 -26.93850708 138.25704956 C-26.2094705 134.50460914 -25.4796989 130.75231167 -24.75 127 C-24.45832979 125.50000069 -24.16666313 124.00000069 -23.875 122.5 C-15.125 77.5 -15.125 77.5 -14.68757629 75.25039673 C-14.39565314 73.74907472 -14.10373216 72.24775229 -13.81181335 70.74642944 C-13.0865888 67.01665265 -12.36132743 63.28688303 -11.63598633 59.55712891 C-10.27646904 52.56618869 -8.91732342 45.57517679 -7.55941772 38.58392334 C-6.92223738 35.30348056 -6.28485656 32.02307674 -5.64746094 28.74267578 C-5.34544045 27.18800769 -5.04351677 25.63332078 -4.74169922 24.07861328 C-4.32153923 21.91433934 -3.90103657 19.75013222 -3.48046875 17.5859375 C-3.24223389 16.3592334 -3.00399902 15.1325293 -2.75854492 13.86865234 C-2.16283841 10.83049163 -1.560348 7.7939669 -0.95259094 4.75820923 C-0.77381063 3.86499277 -0.59503031 2.97177631 -0.41083241 2.05149269 C-0.27525771 1.3745001 -0.13968302 0.69750751 0 0 Z " fill="#010101" transform="translate(261,185)"/>
<path d="M0 0 C19.84678067 -0.0704117 39.69353563 -0.12314445 59.54041576 -0.15543652 C68.75786224 -0.17083587 77.97523063 -0.19179097 87.19262695 -0.22631836 C95.23642975 -0.25643496 103.28017594 -0.27562521 111.32403356 -0.28226548 C115.57419403 -0.28614049 119.82419271 -0.29509823 124.07430077 -0.31719017 C161.19922367 -0.50235888 198.09140781 1.74613758 226.1640625 29.109375 C246.05978489 50.15735931 248.89424532 75.76448405 248.17480469 103.35253906 C246.22808677 143.97260288 226.53984412 179.85000568 197 207 C175.29253028 226.18935158 148.34925984 235.29318317 120 239 C119.35561981 239.08828064 118.71123962 239.17656128 118.04733276 239.26751709 C108.88101018 240.3559013 99.64673091 240.23166342 90.4296875 240.31640625 C88.53825461 240.3370102 86.64682598 240.3580075 84.75540161 240.37937927 C79.80716417 240.43424492 74.85888767 240.48380891 69.9105835 240.53222656 C64.84920832 240.58270293 59.787889 240.63825177 54.7265625 240.69335938 C44.8177562 240.80050581 34.90890113 240.9020451 25 241 C22.04591485 256.1758865 19.10489616 271.35365468 16.26171875 286.55078125 C16.04718048 287.69626434 15.83264221 288.84174744 15.61160278 290.02194214 C14.7452764 294.65026286 13.87990153 299.27875415 13.01831055 303.90795898 C12.37294972 307.37273844 11.72389686 310.83680913 11.07421875 314.30078125 C10.78208748 315.87838982 10.78208748 315.87838982 10.48405457 317.48786926 C10.30328873 318.44875961 10.12252289 319.40964996 9.9362793 320.3996582 C9.77894821 321.24325394 9.62161713 322.08684967 9.45951843 322.95600891 C9 325 9 325 8 327 C-15.43 327 -38.86 327 -63 327 C-60.74907293 308.99258344 -60.74907293 308.99258344 -59.484375 302.58203125 C-59.34828323 301.88522247 -59.21219147 301.1884137 -59.07197571 300.4704895 C-58.63671632 298.25005502 -58.19355427 296.03129082 -57.75 293.8125 C-57.43641101 292.22150579 -57.12318538 290.63043991 -56.81030273 289.03930664 C-54.95912356 279.65825662 -53.02905835 270.2950458 -51.0625 260.9375 C-48.1597294 247.11972453 -45.59503629 233.24509766 -43.03369141 219.36083984 C-40.20624047 204.04179837 -37.26178306 188.74801166 -34.26416016 173.46147156 C-33.31118592 168.59956718 -32.36750643 163.73594246 -31.4296875 158.87109375 C-28.72775246 144.87115896 -25.9832938 130.88076988 -23.171875 116.90234375 C-22.79468071 115.02634995 -22.79468071 115.02634995 -22.40986633 113.11245728 C-22.15448593 111.84235809 -21.89910553 110.57225891 -21.63598633 109.26367188 C-21.24311086 107.30967481 -20.85023555 105.35567771 -20.45740128 103.40167236 C-20.19426273 102.09286559 -19.93107664 100.78406838 -19.66784286 99.47528076 C-15.86812391 80.57972285 -12.16929299 61.67150147 -8.76196289 42.70092773 C-6.98536314 32.88296354 -4.98568779 23.12609414 -2.88037109 13.37304688 C-2.60283493 12.0828363 -2.32529877 10.79262573 -2.03935242 9.46331787 C-1.36060136 6.30865458 -0.68079371 3.15422299 0 0 Z " fill="#000000" transform="translate(819,185)"/>
<path d="M0 0 C1.88863014 0.00333092 1.88863014 0.00333092 3.81541443 0.00672913 C4.50806396 0.0065831 5.2007135 0.00643707 5.91435242 0.00628662 C8.21400537 0.00698577 10.51357828 0.01477823 12.81321716 0.02259827 C14.40362504 0.02446244 15.99403349 0.02588635 17.58444214 0.02688599 C21.77827021 0.03071123 25.97206386 0.04054156 30.1658783 0.05158997 C34.44220006 0.06180395 38.71852736 0.06638358 42.99485779 0.07142639 C51.39135799 0.08216383 59.78783017 0.09924032 68.18431091 0.12025452 C64.37983302 23.30381985 59.55724393 46.32112939 54.94212341 69.35462952 C54.57433171 71.19169942 54.20657442 73.02877622 53.83885193 74.86585999 C52.95439899 79.2840705 52.06948964 83.70218936 51.18431091 88.12025452 C52.732621 88.10693085 52.732621 88.10693085 54.31221008 88.09333801 C64.16386442 88.01133316 74.01544727 87.95185679 83.8673687 87.91300583 C88.92921837 87.89235907 93.99078699 87.86447533 99.05247498 87.8184967 C174.4449987 87.152141 174.4449987 87.152141 198.05931091 109.43275452 C209.2319387 121.43373264 212.50651622 134.54200869 212.68431091 150.55775452 C212.70284119 151.54968811 212.72137146 152.5416217 212.74046326 153.56361389 C212.58936363 172.46588096 207.38711583 191.46782561 203.63877869 209.90257263 C199.92607592 228.17803192 196.30861175 246.46670774 192.93431091 264.80775452 C191.57139895 272.20903488 191.57139895 272.20903488 191.03587341 275.11634827 C190.88373383 275.94258698 190.73159424 276.76882568 190.57484436 277.62010193 C189.01246633 286.0860156 187.40330874 294.54272505 185.76841736 302.99491882 C185.46706067 304.55408514 185.16681251 306.11346621 184.86778259 307.67308044 C184.45826928 309.80714862 184.04459688 311.94036724 183.62962341 314.07337952 C183.28181824 315.87017151 183.28181824 315.87017151 182.92698669 317.70326233 C182.16436832 321.21200879 181.17074296 324.66774234 180.18431091 328.12025452 C156.42431091 328.12025452 132.66431091 328.12025452 108.18431091 328.12025452 C111.23772442 310.41045615 114.34166311 292.79775299 117.91981506 275.19892883 C118.89125374 270.41965156 119.85290396 265.63841864 120.81515503 260.85728455 C121.29094966 258.49337105 121.76714795 256.12953876 122.24377441 253.76579285 C126.17761095 234.2512174 129.92464404 214.70427353 133.49681091 195.12025452 C133.62641205 194.41080688 133.75601318 193.70135925 133.88954163 192.97041321 C134.25642566 190.95816435 134.62119628 188.94554568 134.98509216 186.93275452 C135.19303406 185.78419983 135.40097595 184.63564514 135.61521912 183.45228577 C138.55769413 166.88939632 138.55769413 166.88939632 133.93431091 151.17884827 C127.82069533 143.98716208 117.1646219 142.1895442 108.22685242 141.33659363 C102.15586123 140.9049174 96.0728364 140.87765655 89.98899841 140.80384827 C88.54596936 140.78322953 87.10294568 140.76223196 85.65992737 140.74087524 C81.89537454 140.68616166 78.1307719 140.6365328 74.36613464 140.58802795 C70.51121179 140.53743815 66.65635963 140.48194945 62.80149841 140.42689514 C55.26249609 140.31993569 47.72343424 140.21835753 40.18431091 140.12025452 C40.1281662 140.82517532 40.07202148 141.53009613 40.01417542 142.25637817 C39.54133474 147.85740917 38.90006369 153.29248225 37.80149841 158.80384827 C37.6666806 159.48890945 37.53186279 160.17397064 37.39295959 160.87979126 C36.95353917 163.10683046 36.50641141 165.33224574 36.05931091 167.55775452 C35.74426261 169.14813152 35.42982201 170.73862902 35.11595154 172.32923889 C34.4649711 175.62576923 33.811409 178.92177176 33.1559906 182.21742249 C31.78810083 189.10597942 30.45219824 196.00071601 29.11576843 202.89543152 C28.39010631 206.63732896 27.66208209 210.37876681 26.93431091 214.12025452 C26.64263309 215.62025235 26.35096641 217.12025235 26.05931091 218.62025452 C25.47597758 221.62025452 24.89264425 224.62025452 24.30931091 227.62025452 C24.16494095 228.36272934 24.02057098 229.10520416 23.87182617 229.87017822 C23.58010973 231.37043275 23.2883922 232.87068706 22.99667358 234.37094116 C22.26825953 238.1170452 21.5398643 241.86315289 20.81150818 245.60926819 C19.49008064 252.40559696 18.16852555 259.20190078 16.84623718 265.99806213 C16.39977485 268.29284803 15.95341666 270.58765416 15.50706482 272.88246155 C14.92255729 275.88743284 14.33754225 278.8923047 13.75218201 281.89710999 C12.30496484 289.32993874 10.86741796 296.76447217 9.44602966 304.20228577 C9.03254968 306.36014426 8.61885612 308.5179617 8.20509338 310.67576599 C7.81767199 312.70153568 7.43345088 314.72789552 7.04930115 316.75428772 C6.817995 317.96044739 6.58668884 319.16660706 6.34837341 320.40931702 C6.14679626 321.46844299 5.94521912 322.52756897 5.73753357 323.61878967 C5.18431091 326.12025452 5.18431091 326.12025452 4.18431091 328.12025452 C-19.24568909 328.12025452 -42.67568909 328.12025452 -66.81568909 328.12025452 C-65.07930326 318.28073484 -63.3453809 308.45882871 -61.41920471 298.65736389 C-61.21098083 297.59618347 -61.21098083 297.59618347 -60.99855042 296.51356506 C-60.85570618 295.78564758 -60.71286194 295.0577301 -60.56568909 294.30775452 C-60.26018757 292.74463532 -59.95485314 291.18148346 -59.64967346 289.61830139 C-59.0188018 286.38754461 -58.38722942 283.15692603 -57.75514221 279.92640686 C-56.41401151 273.06910665 -55.08172916 266.2100882 -53.74916077 259.35112 C-53.02173562 255.60742064 -52.29367902 251.86384408 -51.56568909 248.12025452 C-51.27401943 246.6202551 -50.98235276 245.1202551 -50.69068909 243.62025452 C-40.77402242 192.62025452 -30.85735575 141.62025452 -20.94068909 90.62025452 C-20.79632919 89.87782501 -20.6519693 89.13539551 -20.50323486 88.37046814 C-20.2114265 86.86975395 -19.91960724 85.36904187 -19.6277771 83.86833191 C-18.90068924 80.12927634 -18.1737879 76.39018471 -17.44728088 72.65101624 C-16.11022909 65.77052505 -14.77154131 58.890367 -13.42628479 52.01147461 C-12.65937479 48.0895726 -11.89373484 44.16742301 -11.12818909 40.24525452 C-10.98097412 39.4918277 -10.83375916 38.73840088 -10.68208313 37.96214294 C-8.68318933 27.72361167 -6.74083483 17.4777743 -4.96925354 7.19691467 C-3.73370798 0.15946194 -3.73370798 0.15946194 0 0 Z " fill="#010101" transform="translate(568.8156890869141,96.87974548339844)"/>
<path d="M0 0 C7.75559815 -0.07033773 15.51111788 -0.12322719 23.26695728 -0.15543652 C26.87055247 -0.17091614 30.47392531 -0.19181807 34.07739258 -0.22631836 C86.6970191 -0.71679946 86.6970191 -0.71679946 103.04296875 13.81640625 C111.8713905 23.1342501 113.48587779 34.47481436 113.27734375 46.86328125 C112.22238935 73.59404121 104.02797372 101.43748778 84 120 C66.96148478 133.96411197 44.25643376 137.36308778 22.94921875 137.1953125 C21.55532538 137.19157001 20.16142932 137.18872891 18.76753235 137.18673706 C15.14592888 137.17919763 11.52449268 137.1596359 7.9029541 137.1373291 C4.18858094 137.11665845 0.47418005 137.10769057 -3.24023438 137.09765625 C-10.49356482 137.076378 -17.74675874 137.04236353 -25 137 C-25.13097607 132.03604668 -24.68874156 127.57210353 -23.71484375 122.70703125 C-23.57861099 122.01631027 -23.44237823 121.32558929 -23.30201721 120.61393738 C-22.85324456 118.34553861 -22.39532006 116.07908843 -21.9375 113.8125 C-21.61778745 112.20391543 -21.29878995 110.5951886 -20.98046875 108.98632812 C-20.31900964 105.64608965 -19.65448681 102.30648259 -18.98779297 98.96728516 C-17.610178 92.05534531 -16.27000203 85.13618805 -14.92962646 78.21694946 C-14.20851761 74.49589867 -13.48513485 70.77529031 -12.76171875 67.0546875 C-12.61792786 66.31493179 -12.47413696 65.57517609 -12.32598877 64.81300354 C-11.42365301 60.17260382 -10.51833842 55.53279415 -9.61099243 50.89337158 C-8.99237772 47.72967439 -8.37481836 44.56577154 -7.75732422 41.40185547 C-7.46959479 39.92909768 -7.18137889 38.4564348 -6.89257812 36.98388672 C-4.47907569 24.67675647 -2.22190753 12.34306866 0 0 Z " fill="#777BB3" transform="translate(880,236)"/>
<path d="M0 0 C7.62519575 -0.07035501 15.25035675 -0.12323566 22.87580585 -0.15543652 C26.41886899 -0.17091253 29.96170577 -0.19180725 33.50463867 -0.22631836 C84.24069518 -0.70727092 84.24069518 -0.70727092 102 13 C110.79040129 21.79040129 112.21126821 33.47294923 112.25 45.375 C112.23828693 54.57143491 111.28122157 63.0616287 109 72 C108.70198486 73.18360107 108.70198486 73.18360107 108.39794922 74.39111328 C103.02279213 95.16297504 94.23469803 114.61926189 75 126 C58.33528512 134.54041869 41.74851156 137.16948295 23.21875 137.09765625 C21.79528859 137.09578803 20.37182654 137.09436603 18.94836426 137.09336853 C15.22646263 137.08957518 11.50460087 137.07977257 7.78271484 137.06866455 C3.97494038 137.05838152 0.16715939 137.05385623 -3.640625 137.04882812 C-11.09376805 137.03814702 -18.54687841 137.02110946 -26 137 C-25.46352897 129.56047096 -24.43894106 122.3782829 -22.92578125 115.078125 C-22.72150513 114.06801361 -22.517229 113.05790222 -22.3067627 112.0171814 C-21.87174633 109.86927265 -21.43411922 107.72189122 -20.99404907 105.57501221 C-20.06989136 101.06640704 -19.15848191 96.55525288 -18.2462616 92.04421997 C-17.79185844 89.79788991 -17.33679467 87.55169339 -16.88105774 85.30563354 C-15.14661748 76.75375019 -13.45849363 68.19434233 -11.8125 59.625 C-11.5863501 58.45018066 -11.3602002 57.27536133 -11.12719727 56.06494141 C-10.66791933 53.67748095 -10.20901971 51.28994769 -9.75048828 48.90234375 C-8.41277012 41.94655744 -7.06680232 34.99237582 -5.71786499 28.03875732 C-5.26378465 25.69611626 -4.81118085 23.35319326 -4.35864258 21.01025391 C-4.07772107 19.56150708 -3.7967191 18.11277585 -3.515625 16.6640625 C-3.27102539 15.40029785 -3.02642578 14.1365332 -2.77441406 12.83447266 C-1.90759566 8.54246452 -0.96560582 4.27067744 0 0 Z " fill="#777BB3" transform="translate(323,236)"/>
<path d="M0 0 C7.75559815 -0.07033773 15.51111788 -0.12322719 23.26695728 -0.15543652 C26.87055247 -0.17091614 30.47392531 -0.19181807 34.07739258 -0.22631836 C86.6970191 -0.71679946 86.6970191 -0.71679946 103.04296875 13.81640625 C111.8713905 23.1342501 113.48587779 34.47481436 113.27734375 46.86328125 C112.22238935 73.59404121 104.02797372 101.43748778 84 120 C66.96148478 133.96411197 44.25643376 137.36308778 22.94921875 137.1953125 C21.55532538 137.19157001 20.16142932 137.18872891 18.76753235 137.18673706 C15.14592888 137.17919763 11.52449268 137.1596359 7.9029541 137.1373291 C4.18858094 137.11665845 0.47418005 137.10769057 -3.24023438 137.09765625 C-10.49356482 137.076378 -17.74675874 137.04236353 -25 137 C-25.13097607 132.03604668 -24.68874156 127.57210353 -23.71484375 122.70703125 C-23.57861099 122.01631027 -23.44237823 121.32558929 -23.30201721 120.61393738 C-22.85324456 118.34553861 -22.39532006 116.07908843 -21.9375 113.8125 C-21.61778745 112.20391543 -21.29878995 110.5951886 -20.98046875 108.98632812 C-20.31900964 105.64608965 -19.65448681 102.30648259 -18.98779297 98.96728516 C-17.610178 92.05534531 -16.27000203 85.13618805 -14.92962646 78.21694946 C-14.20851761 74.49589867 -13.48513485 70.77529031 -12.76171875 67.0546875 C-12.61792786 66.31493179 -12.47413696 65.57517609 -12.32598877 64.81300354 C-11.42365301 60.17260382 -10.51833842 55.53279415 -9.61099243 50.89337158 C-8.99237772 47.72967439 -8.37481836 44.56577154 -7.75732422 41.40185547 C-7.46959479 39.92909768 -7.18137889 38.4564348 -6.89257812 36.98388672 C-4.47907569 24.67675647 -2.22190753 12.34306866 0 0 Z M11 14 C10.89692535 14.55295746 10.79385071 15.10591492 10.68765259 15.67562866 C9.33835702 22.90967715 7.98273194 30.14253054 6.625 37.375 C6.40434875 38.55161194 6.18369751 39.72822388 5.95635986 40.94049072 C3.4203586 54.44546955 0.83743063 67.93862621 -1.890625 81.40625 C-2.23723679 83.11985214 -2.23723679 83.11985214 -2.59085083 84.86807251 C-3.70050732 90.3443932 -4.81959592 95.8185941 -5.95068359 101.29052734 C-6.35530468 103.27438114 -6.75977268 105.25826617 -7.1640625 107.2421875 C-7.35107727 108.13160034 -7.53809204 109.02101318 -7.73077393 109.93737793 C-8.70086265 114.72965108 -9.19413596 119.11025207 -9 124 C-3.5048047 124.02493457 1.99035682 124.04296987 7.4855957 124.05493164 C9.3505104 124.0599245 11.21542126 124.06672112 13.08032227 124.07543945 C35.61466577 124.17806036 60.76489061 123.51672065 78.5 107.375 C93.41508897 90.45590128 99.14582346 66.40025213 99.375 44.4375 C99.38901855 43.5091333 99.40303711 42.5807666 99.41748047 41.62426758 C99.36234088 33.83332634 97.68557515 27.68557515 92 22 C76.01352821 11.85473905 56.59876516 13.51224202 38.5 13.75 C35.82683641 13.7724083 33.15368197 13.78834557 30.48046875 13.8046875 C23.98665519 13.84837985 17.49339749 13.91500183 11 14 Z " fill="#FAFAFB" transform="translate(880,236)"/>
<path d="M0 0 C7.62519575 -0.07035501 15.25035675 -0.12323566 22.87580585 -0.15543652 C26.41886899 -0.17091253 29.96170577 -0.19180725 33.50463867 -0.22631836 C84.24069518 -0.70727092 84.24069518 -0.70727092 102 13 C110.79040129 21.79040129 112.21126821 33.47294923 112.25 45.375 C112.23828693 54.57143491 111.28122157 63.0616287 109 72 C108.70198486 73.18360107 108.70198486 73.18360107 108.39794922 74.39111328 C103.02279213 95.16297504 94.23469803 114.61926189 75 126 C58.33528512 134.54041869 41.74851156 137.16948295 23.21875 137.09765625 C21.79528859 137.09578803 20.37182654 137.09436603 18.94836426 137.09336853 C15.22646263 137.08957518 11.50460087 137.07977257 7.78271484 137.06866455 C3.97494038 137.05838152 0.16715939 137.05385623 -3.640625 137.04882812 C-11.09376805 137.03814702 -18.54687841 137.02110946 -26 137 C-25.46352897 129.56047096 -24.43894106 122.3782829 -22.92578125 115.078125 C-22.72150513 114.06801361 -22.517229 113.05790222 -22.3067627 112.0171814 C-21.87174633 109.86927265 -21.43411922 107.72189122 -20.99404907 105.57501221 C-20.06989136 101.06640704 -19.15848191 96.55525288 -18.2462616 92.04421997 C-17.79185844 89.79788991 -17.33679467 87.55169339 -16.88105774 85.30563354 C-15.14661748 76.75375019 -13.45849363 68.19434233 -11.8125 59.625 C-11.5863501 58.45018066 -11.3602002 57.27536133 -11.12719727 56.06494141 C-10.66791933 53.67748095 -10.20901971 51.28994769 -9.75048828 48.90234375 C-8.41277012 41.94655744 -7.06680232 34.99237582 -5.71786499 28.03875732 C-5.26378465 25.69611626 -4.81118085 23.35319326 -4.35864258 21.01025391 C-4.07772107 19.56150708 -3.7967191 18.11277585 -3.515625 16.6640625 C-3.27102539 15.40029785 -3.02642578 14.1365332 -2.77441406 12.83447266 C-1.90759566 8.54246452 -0.96560582 4.27067744 0 0 Z M11 14 C8.20539242 26.70561704 5.44121305 39.40852375 3 52.1875 C2.74749998 53.49886506 2.49497655 54.81022561 2.24243164 56.12158203 C0.34771949 66.00046129 -1.42616132 75.89966593 -3.16479492 85.80712891 C-4.78814957 94.9931658 -6.58664674 104.13821834 -8.47680664 113.27294922 C-8.67653076 114.24635254 -8.87625488 115.21975586 -9.08203125 116.22265625 C-9.25968018 117.07609619 -9.4373291 117.92953613 -9.62036133 118.80883789 C-10.08535783 121.12202569 -10.08535783 121.12202569 -10 124 C35.4702913 126.56434948 35.4702913 126.56434948 75.9765625 109.03515625 C92.04070148 92.87798171 98.95477933 67.35754179 99.3125 45 C99.06805454 36.11534763 98.63007503 29.41298488 92.23046875 22.7890625 C77.34429607 10.84883993 54.40551107 13.74978513 36.625 13.875 C34.13542026 13.88504908 31.64583661 13.89417153 29.15625 13.90234375 C23.10408001 13.92420611 17.05205866 13.9575311 11 14 Z " fill="#FAFAFB" transform="translate(323,236)"/>
</svg>
