<?xml version="1.0" encoding="UTF-8"?>
<svg version="1.1" xmlns="http://www.w3.org/2000/svg" width="1920" height="1920">
<path d="M0 0 C1.09448771 -0.00282738 2.18897541 -0.00565475 3.31662941 -0.00856781 C9.13434701 -0.02342844 14.95204076 -0.03273464 20.76977539 -0.03710938 C25.44694021 -0.04144514 30.12391546 -0.05516398 34.80102539 -0.078125 C125.26775453 -0.51275422 218.62329911 6.15844124 376.17578125 63.203125 C376.91940918 63.5729248 377.66303711 63.94272461 378.42919922 64.32373047 C429.89531795 90.16398464 476.21714614 133.88317595 495.09082031 189.31103516 C502.02743527 210.69830228 504.34204509 231.58792874 504.27153015 253.94842529 C504.26926525 255.85130908 504.26744233 257.75419343 504.26602107 259.65707803 C504.26082434 264.86676445 504.24926982 270.07642005 504.23662198 275.286093 C504.22405945 280.91283531 504.21736512 286.53958514 504.20986938 292.16633606 C504.19419106 303.18493593 504.17285444 314.20351782 504.14929136 325.22210339 C504.1301537 334.18521911 504.1126721 343.14833654 504.09635353 352.11145782 C504.05742476 373.41364585 504.01730713 394.71582959 503.97038555 416.01800156 C503.96888711 416.69875966 503.96738867 417.37951776 503.96584483 418.08090489 C503.95824628 421.530865 503.95063062 424.98082508 503.94301047 428.43078515 C503.94074114 429.45844683 503.94074114 429.45844683 503.93842597 430.50686936 C503.93536639 431.89232597 503.93230551 433.27778259 503.92924331 434.6632392 C503.88171163 456.1945914 503.84219169 477.72594555 503.80883789 499.25732422 C503.77130819 523.47963663 503.72712275 547.70192159 503.67366153 571.92420506 C503.64552854 584.73674674 503.62034273 597.54927804 503.60300255 610.36183929 C503.58817125 621.27586721 503.56648081 632.18985561 503.53612741 643.10385182 C503.52085401 648.66411576 503.50861788 654.2243393 503.50502586 659.7846241 C503.47298747 703.03821609 503.47298747 703.03821609 501.17578125 721.203125 C501.02711955 722.42224453 500.87845785 723.64136406 500.72529125 724.89742661 C500.3732002 727.61796597 499.95626599 730.31282133 499.48828125 733.015625 C499.23618896 734.47754272 499.23618896 734.47754272 498.97900391 735.96899414 C488.52577334 793.5716998 458.62785299 845.70544374 410.41259766 879.66015625 C377.17255944 902.58932472 339.79266273 917.08405585 300.30078125 924.890625 C299.34695557 925.08108398 298.39312988 925.27154297 297.41040039 925.46777344 C294.7003742 925.97719524 291.98634304 926.43061003 289.26327837 926.86391568 C287.87147911 927.09007709 286.48127565 927.32628756 285.09288371 927.57250285 C263.50141124 931.32014402 241.61372508 930.6435831 219.78265059 930.62120581 C213.90313717 930.61849843 208.02366228 930.63316406 202.14416504 930.64564514 C191.97727004 930.66494207 181.81041197 930.67360174 171.64349937 930.67494583 C160.97624774 930.6764307 150.30903302 930.68441409 139.6417942 930.70100021 C138.97498414 930.70203522 138.30817407 930.70307022 137.62115763 930.70413659 C134.23334175 930.7094357 130.84552608 930.71486194 127.45771048 930.72034375 C103.51649191 930.75892097 79.57527599 930.7845515 55.6340332 930.80175781 C49.84737139 930.80593114 44.06070959 930.81011943 38.27404785 930.81439209 C37.5563992 930.81492184 36.83875056 930.81545159 36.09935498 930.81599739 C19.43577976 930.82841338 2.7722113 930.84611039 -13.89135742 930.86523438 C-14.96208409 930.866459 -14.96208409 930.866459 -16.0544416 930.86770836 C-32.38204888 930.88640976 -48.70965392 930.90657241 -65.03725719 930.92848778 C-66.06933245 930.92986995 -66.06933245 930.92986995 -67.12225772 930.93128005 C-73.31496855 930.939575 -79.50767938 930.94787463 -85.70038988 930.95641164 C-101.73900758 930.97849341 -117.77761609 930.99629383 -133.81624677 931.00636445 C-143.88428401 931.01278396 -153.95231487 931.02236021 -164.02034704 931.03433301 C-169.81409813 931.04106219 -175.60783896 931.04618603 -181.40159416 931.04691887 C-261.91547977 931.060524 -342.20820849 937.1639789 -404.51171875 994.11328125 C-406.47407389 995.88669341 -408.47083284 997.58462745 -410.51171875 999.265625 C-414.37468756 1002.56393712 -417.55309184 1006.33026437 -420.82421875 1010.203125 C-421.63761719 1011.11707031 -422.45101563 1012.03101563 -423.2890625 1012.97265625 C-456.8963808 1051.03927742 -475.76912186 1102.26562325 -484.13671875 1151.703125 C-484.28391357 1152.57171143 -484.4311084 1153.44029785 -484.58276367 1154.33520508 C-487.41976096 1172.34822879 -488.12710189 1190.2134538 -488.14306641 1208.42285156 C-488.1523874 1210.88882772 -488.16255921 1213.35480079 -488.17350769 1215.82077026 C-488.19500264 1221.08607771 -488.21070657 1226.35136675 -488.22087479 1231.61670685 C-488.23558596 1239.22909412 -488.26115564 1246.84141599 -488.28920607 1254.45376441 C-488.33445092 1266.81030462 -488.3711568 1279.16685438 -488.40234375 1291.5234375 C-488.43262145 1303.51238677 -488.46701332 1315.50131285 -488.50683594 1327.49023438 C-488.50929749 1328.2317288 -488.51175903 1328.97322322 -488.51429518 1329.73718718 C-488.52667156 1333.45779253 -488.53912775 1337.1783976 -488.55162358 1340.89900255 C-488.65485658 1371.66701178 -488.74402421 1402.43504667 -488.82421875 1433.203125 C-511.52217406 1433.27349865 -534.22011113 1433.32625113 -556.91815376 1433.35856152 C-567.45947055 1433.37396879 -578.00071918 1433.39493951 -588.54199219 1433.42944336 C-597.73980824 1433.45953519 -606.93757488 1433.47874449 -616.1354388 1433.48539048 C-620.99651456 1433.48926956 -625.85744909 1433.49825456 -630.71847916 1433.52031517 C-687.071439 1433.76585824 -739.18922393 1421.8412529 -783.82421875 1385.203125 C-784.35321777 1384.77032227 -784.8822168 1384.33751953 -785.42724609 1383.89160156 C-796.56352895 1374.743344 -807.58678768 1365.29978478 -816.82421875 1354.203125 C-817.68015625 1353.23503906 -818.53609375 1352.26695313 -819.41796875 1351.26953125 C-881.04585166 1281.4764726 -906.1754457 1186.12226388 -923.51171875 1045.890625 C-923.60312637 1044.71114792 -923.60312637 1044.71114792 -923.69638062 1043.50784302 C-925.19815578 1023.85042503 -925.98831245 1004.23003535 -926.02734375 984.515625 C-926.03017113 983.52089172 -926.0329985 982.52615845 -926.03591156 981.50128174 C-926.05076765 976.21683506 -926.06007745 970.93241463 -926.06445312 965.64794922 C-926.06879451 961.39427917 -926.08253646 957.14081691 -926.10546875 952.88720703 C-926.22520275 930.18508145 -926.00352545 907.58644712 -924.453125 884.9296875 C-924.39171074 884.03007294 -924.33029648 883.13045837 -924.26702118 882.20358276 C-918.14053931 794.6925167 -899.74032106 704.9473193 -820.82421875 586.203125 C-820.34807129 585.66526367 -819.87192383 585.12740234 -819.38134766 584.57324219 C-774.24522087 533.68252636 -709.73089318 501.91465459 -641.82421875 497.203125 C-637.82689868 497.07825689 -633.83425193 497.07978615 -629.83526325 497.09569454 C-628.0915511 497.09649634 -628.0915511 497.09649634 -626.31261244 497.09731433 C-623.10361833 497.09980993 -619.89467189 497.10682671 -616.68569057 497.11579801 C-613.18799084 497.124443 -609.69028553 497.12714721 -606.19257754 497.13061959 C-600.06847738 497.13751045 -593.94439279 497.14815921 -587.82030296 497.16129494 C-578.71406577 497.18080999 -569.60782631 497.19447581 -560.5015771 497.20695671 C-545.18196509 497.22811856 -529.86236447 497.25400386 -514.54276466 497.28259087 C-499.37672046 497.31087586 -484.21067502 497.33705551 -469.04462242 497.36042976 C-468.1012764 497.36188485 -467.15793038 497.36333994 -466.18599812 497.36483912 C-461.39512612 497.37221797 -456.60425407 497.37955928 -451.81338199 497.38688613 C-417.88884573 497.43883564 -383.96431882 497.49549593 -350.03979492 497.55493164 C-317.08472043 497.61265809 -284.12964347 497.66824758 -251.17456055 497.72094727 C-249.65055261 497.72338564 -249.65055261 497.72338564 -248.09575664 497.72587327 C-237.89251718 497.74219583 -227.68927764 497.75847498 -217.48603805 497.77472233 C-196.70127818 497.80782038 -175.91651877 497.84120814 -155.13175964 497.87477112 C-154.17613188 497.8763139 -153.22050411 497.87785668 -152.23591792 497.87944621 C-102.79699792 497.95928682 -53.35808535 498.04342862 -3.91917419 498.1285553 C-3.22376891 498.12975266 -2.52836363 498.13095001 -1.81188546 498.13218366 C11.85067031 498.15571578 25.51322575 498.1794386 39.17578125 498.203125 C39.17578125 476.423125 39.17578125 454.643125 39.17578125 432.203125 C-114.93421875 432.203125 -269.04421875 432.203125 -427.82421875 432.203125 C-428.05109375 393.634375 -428.27796875 355.065625 -428.51171875 315.328125 C-428.63099731 297.09264404 -428.63099731 297.09264404 -428.75268555 278.48876953 C-428.82971191 263.58959961 -428.82971191 263.58959961 -428.8618927 256.60421753 C-428.88532302 251.74826554 -428.91737979 246.89245463 -428.95478821 242.03659058 C-429.00235406 235.82479787 -429.03483042 229.6130912 -429.05681384 223.40115714 C-429.06733255 221.13254513 -429.08295936 218.86394902 -429.10454881 216.59541535 C-429.25916363 199.91222177 -428.33807817 183.79900092 -422.82421875 167.890625 C-422.52862061 167.02800049 -422.23302246 166.16537598 -421.9284668 165.27661133 C-414.41096609 144.30993576 -402.20955203 126.18664387 -386.82421875 110.203125 C-386.30553223 109.65333984 -385.7868457 109.10355469 -385.25244141 108.53710938 C-375.87939416 98.63491705 -365.93136696 90.10329827 -354.82421875 82.203125 C-353.87313232 81.52491699 -353.87313232 81.52491699 -352.90283203 80.83300781 C-280.4846583 29.73447008 -184.99437992 12.9254103 -67.88671875 2.515625 C-66.99625854 2.45468658 -66.10579834 2.39374817 -65.18835449 2.33096313 C-43.46242841 0.86591733 -21.77573262 0.03920055 0 0 Z M-281.82421875 169.203125 C-282.65566406 169.94175781 -283.48710938 170.68039063 -284.34375 171.44140625 C-299.40933173 185.5812994 -309.17976116 205.55286852 -310.10546875 226.26171875 C-310.75569312 251.19827474 -303.33663228 272.38736405 -286.3137207 290.82910156 C-271.53958502 306.06327925 -251.1446786 315.08727797 -229.93188477 315.49609375 C-212.00489728 315.61348419 -198.40686591 311.98533119 -182.82421875 303.203125 C-181.98375 302.74292969 -181.14328125 302.28273438 -180.27734375 301.80859375 C-163.00131482 291.37362007 -150.20560221 272.46672829 -145.28515625 253.07910156 C-140.87530067 233.54099144 -142.44753808 214.49261116 -150.82421875 196.203125 C-151.24316406 195.28273437 -151.66210938 194.36234375 -152.09375 193.4140625 C-161.54974782 174.50206686 -178.69045747 160.45565532 -198.2109375 152.890625 C-226.99479333 143.44646482 -259.05830992 148.54447385 -281.82421875 169.203125 Z " fill="#3672A4" transform="translate(925.82421875,-0.203125)"/>
<path d="M0 0 C1.02754584 -0.00339833 1.02754584 -0.00339833 2.07585019 -0.00686532 C4.38922187 -0.01323413 6.7025354 -0.01237406 9.01591492 -0.0115509 C10.66832048 -0.0145411 12.32072534 -0.0179433 13.97312927 -0.02172852 C18.48047125 -0.03059914 22.98779427 -0.03290825 27.49514413 -0.0335443 C30.31734366 -0.03425449 33.13953835 -0.03638847 35.96173668 -0.03904152 C45.82729269 -0.0483136 55.69283516 -0.05237515 65.55839539 -0.05158997 C74.71650744 -0.05099259 83.87455994 -0.06147223 93.03265697 -0.07733363 C100.91403137 -0.090491 108.79538655 -0.09577027 116.67677182 -0.09513456 C121.37452511 -0.09488144 126.07222579 -0.09762696 130.76996803 -0.10831261 C176.25422103 -0.20459635 176.25422103 -0.20459635 195.77250671 4.25871277 C196.71883972 4.47261658 197.66517273 4.68652039 198.6401825 4.90690613 C237.38403545 14.03679087 271.72035651 33.0759769 301.01860046 59.85246277 C302.68327409 61.36910769 304.36304772 62.86934804 306.05766296 64.35246277 C312.01813573 69.58514984 317.34405757 75.13122231 322.52250671 81.13371277 C323.78514343 82.56457214 323.78514343 82.56457214 325.07328796 84.02433777 C344.04649477 105.73777159 358.69652176 130.40779124 371.52250671 156.13371277 C371.93484558 156.95581238 372.34718445 157.77791199 372.77201843 158.62492371 C393.83434853 200.88855186 406.61546098 247.21192264 415.39750671 293.44621277 C415.53121674 294.14825836 415.66492676 294.85030396 415.8026886 295.57362366 C416.6087938 299.85419596 417.3527389 304.14272804 418.07011628 308.43897426 C418.38032947 310.28681045 418.69564297 312.13379553 419.01526618 313.98002732 C421.9641175 331.19920386 423.11140763 347.87013609 423.07182312 365.32096863 C423.08054873 367.916759 423.09092527 370.51254426 423.10279846 373.10832214 C423.12796085 379.35519954 423.13192187 385.60190375 423.12719794 391.8488233 C423.12359218 396.94275849 423.12721377 402.03664226 423.13564682 407.13057137 C423.1368372 407.86309129 423.13802758 408.59561121 423.13925403 409.3503287 C423.14167824 410.83979396 423.1441065 412.32925921 423.14653878 413.81872446 C423.16816382 427.70756656 423.16402603 441.59631093 423.15176909 455.48515833 C423.14145126 468.09807112 423.16390977 480.71067402 423.20196553 493.3235256 C423.24102974 506.37396635 423.25718059 519.42426168 423.24971902 532.47476107 C423.24593978 539.7616086 423.25058686 547.04819059 423.2791481 554.33498955 C423.39061472 584.48516474 423.03556172 613.58891522 416.52250671 643.13371277 C415.79128565 646.76579114 415.0761771 650.4007703 414.36243629 654.03631496 C401.11644112 719.4592618 376.70230565 783.75198773 334.52250671 836.13371277 C334.11049011 836.65014343 333.69847351 837.1665741 333.27397156 837.69865417 C320.25514817 853.87840586 305.03389412 869.79628702 288.14701843 881.94914246 C286.4632483 883.17692314 284.82262713 884.44967999 283.18266296 885.73527527 C242.74104406 917.02297483 188.81649328 936.38220204 137.59412956 936.2567606 C136.42605515 936.25791444 135.25798073 936.25906829 134.05451012 936.2602571 C130.82515521 936.26244103 127.59583966 936.26016659 124.3664879 936.25597896 C120.84844316 936.25252967 117.33040149 936.25491842 113.81235611 936.25655645 C107.65099873 936.25862615 101.48965101 936.25699331 95.32829475 936.25291824 C86.16662696 936.24687566 77.00496524 936.24658314 67.84329582 936.24746023 C52.4308617 936.2487733 37.01843187 936.24543589 21.60599899 936.23944283 C6.34701898 936.23352465 -8.91195925 936.22967664 -24.1709404 936.22859001 C-25.11990055 936.22852127 -26.06886069 936.22845253 -27.04657721 936.22838171 C-31.86591839 936.22804337 -36.68525957 936.22774199 -41.50460075 936.22745483 C-75.63488906 936.22535474 -109.76517504 936.21861828 -143.89546204 936.20915222 C-177.05138639 936.19996703 -210.2073101 936.19288378 -243.36323547 936.18864441 C-244.38534851 936.18851288 -245.40746155 936.18838136 -246.46054771 936.18824585 C-256.72508046 936.18692732 -266.98961321 936.18565151 -277.25414596 936.18440699 C-298.16395277 936.18187081 -319.07375954 936.17904956 -339.98356628 936.17605591 C-341.4256468 936.17584997 -341.4256468 936.17584997 -342.89686026 936.17563988 C-392.6371023 936.16851145 -442.37734325 936.15715062 -492.11758423 936.14482117 C-493.16709598 936.14456106 -493.16709598 936.14456106 -494.23780999 936.1442957 C-507.98437112 936.14088119 -521.7309322 936.13727906 -535.47749329 936.13371277 C-535.47749329 957.58371277 -535.47749329 979.03371277 -535.47749329 1001.13371277 C-381.36749329 1001.13371277 -227.25749329 1001.13371277 -68.47749329 1001.13371277 C-67.30048953 1096.47101709 -67.30048953 1096.47101709 -67.23921204 1123.90324402 C-67.23510951 1125.56374808 -67.23099239 1127.2242521 -67.22686195 1128.88475609 C-67.21036822 1135.77384521 -67.19584088 1142.66293219 -67.18811321 1149.55203724 C-67.1773734 1159.11174969 -67.15205051 1168.67119815 -67.10874909 1178.23082048 C-67.07846294 1185.16689305 -67.06377479 1192.10289582 -67.06046897 1199.03903311 C-67.05816074 1203.10411898 -67.04974771 1207.16893125 -67.0240078 1211.23394203 C-66.90309782 1231.29506634 -67.17329854 1250.86602149 -74.66499329 1269.82121277 C-74.95978577 1270.58973572 -75.25457825 1271.35825867 -75.55830383 1272.15007019 C-87.54991482 1302.45365692 -109.47038812 1327.88067011 -135.47749329 1347.13371277 C-136.0511261 1347.56280945 -136.62475891 1347.99190613 -137.21577454 1348.43400574 C-208.63492907 1401.6557854 -303.39469615 1419.0258124 -696.47749329 1423.13371277 C-733.46168281 1417.5694708 -769.89128409 1409.70460279 -805.47749329 1398.13371277 C-806.72562805 1397.72814148 -807.97376282 1397.32257019 -809.25971985 1396.90470886 C-865.48531575 1378.4568389 -922.70154715 1348.87903594 -959.47749329 1301.13371277 C-960.10107727 1300.34069763 -960.10107727 1300.34069763 -960.73725891 1299.53166199 C-986.4046566 1266.76295094 -999.84154852 1228.4827541 -999.73146057 1187.00987244 C-999.7337689 1185.1024111 -999.73694791 1183.19495065 -999.74091506 1181.28749204 C-999.74922142 1176.07896417 -999.74515668 1170.87051011 -999.73894262 1165.66198206 C-999.73440167 1160.03113475 -999.74141028 1154.40029978 -999.74690247 1148.76945496 C-999.75578267 1137.74825631 -999.75387996 1126.72708496 -999.74807718 1115.70588526 C-999.74355255 1106.7390485 -999.74295127 1097.77221936 -999.74512482 1088.80538177 C-999.74543128 1087.52701781 -999.74573775 1086.24865385 -999.7460535 1084.93155159 C-999.74669299 1082.33407408 -999.74734142 1079.73659657 -999.74799868 1077.13911906 C-999.75353628 1053.4874258 -999.74779971 1029.83575005 -999.73731349 1006.18405962 C-999.72783661 984.64545948 -999.72866065 963.10688301 -999.73823547 941.56828308 C-999.7489763 917.32615746 -999.75313587 893.08404859 -999.74701095 868.84192014 C-999.7463739 866.25055774 -999.74574516 863.65919535 -999.74512482 861.06783295 C-999.74481627 859.79307413 -999.74450771 858.51831531 -999.74418981 857.20492743 C-999.7424703 848.26517796 -999.74536214 839.32543694 -999.75008392 830.38568878 C-999.75572453 819.46670877 -999.75411057 808.54775747 -999.74352244 797.62878069 C-999.7383062 792.06811467 -999.73613873 786.5074963 -999.74282074 780.94683075 C-999.8010857 728.10037437 -999.8010857 728.10037437 -995.72749329 702.94621277 C-995.55902893 701.88708679 -995.39056458 700.82796082 -995.21699524 699.73674011 C-993.36690188 688.66914374 -990.70231587 677.8765868 -987.47749329 667.13371277 C-987.2266095 666.29711121 -986.97572571 665.46050964 -986.71723938 664.59855652 C-980.19828848 643.43607153 -970.38637598 623.13213633 -957.47749329 605.13371277 C-957.05758118 604.5470282 -956.63766907 603.96034363 -956.20503235 603.35588074 C-950.2083451 595.08176309 -943.53508765 587.50320493 -936.47749329 580.13371277 C-936.00585754 579.63484558 -935.5342218 579.13597839 -935.04829407 578.62199402 C-889.20379657 530.30906607 -816.00581484 504.83576609 -750.5148716 502.94660664 C-745.20406473 502.85076255 -739.89369767 502.85875787 -734.58222961 502.86869812 C-732.54329643 502.86511817 -730.50436462 502.86066368 -728.46543503 502.85542154 C-722.91669364 502.84360637 -717.36801176 502.8439262 -711.81926084 502.84635663 C-705.81355916 502.84677888 -699.80787728 502.83565159 -693.80218506 502.82589722 C-683.40875695 502.81049024 -673.01534088 502.80200353 -662.62190247 502.79818726 C-647.56561802 502.792538 -632.50936922 502.77382825 -617.45310092 502.75174671 C-610.41941312 502.7414485 -603.38572444 502.73178251 -596.35203552 502.72228241 C-595.64808429 502.7213309 -594.94413306 502.72037939 -594.21884997 502.71939905 C-577.49273152 502.69693799 -560.76660796 502.68067194 -544.04048157 502.66545105 C-542.94391887 502.66444972 -542.94391887 502.66444972 -541.82520339 502.66342817 C-530.70930023 502.65328554 -519.59339679 502.64346605 -508.47749329 502.63371277 C-496.6374866 502.62332194 -484.79748005 502.61280424 -472.95747375 502.60197449 C-471.8633498 502.60097717 -471.8633498 502.60097717 -470.74712233 502.59995971 C-454.06384277 502.58471896 -437.38056759 502.56768662 -420.69729614 502.54514313 C-419.99426152 502.54419387 -419.29122689 502.54324461 -418.56688819 502.54226659 C-411.54395165 502.53274382 -404.52101561 502.52291277 -397.49808015 502.51262263 C-382.46832143 502.49066892 -367.43858448 502.47402664 -352.40881018 502.46849708 C-341.44493813 502.46438028 -330.48109161 502.45326186 -319.51723307 502.43551934 C-313.59186489 502.42617939 -307.66653923 502.41997553 -301.74116325 502.42258263 C-223.57380356 502.45004829 -145.64596839 492.43299362 -86.95210266 435.56144714 C-85.51828409 434.17320691 -84.06840048 432.80161957 -82.61811829 431.43058777 C-67.53357297 416.85738298 -55.90644435 399.22834782 -45.47749329 381.13371277 C-44.83167297 380.03285339 -44.18585266 378.93199402 -43.52046204 377.79777527 C-24.08211383 343.19672368 -14.19460217 303.2742911 -9.47749329 264.13371277 C-9.39426284 263.46785473 -9.31103239 262.80199669 -9.22527981 262.11596113 C-8.50831568 256.1041837 -8.16149474 250.10812431 -7.9210968 244.06008911 C-7.85782495 242.49087059 -7.85782495 242.49087059 -7.79327488 240.88995069 C-7.37546383 229.69608044 -7.35132416 218.51179328 -7.37983704 207.31169128 C-7.38176295 205.04379306 -7.38322355 202.77589441 -7.38426208 200.50799561 C-7.38738746 195.68255351 -7.3935998 190.85712959 -7.40232849 186.03169441 C-7.41598753 178.40537788 -7.42177198 170.77906707 -7.4264679 163.15274048 C-7.43375901 152.47232113 -7.44384667 141.7919094 -7.45698547 131.11149597 C-7.45781329 130.43748892 -7.4586411 129.76348187 -7.45949399 129.06905036 C-7.46455461 124.96525632 -7.46970639 120.86146239 -7.47488976 116.7576685 C-7.48272021 110.55757729 -7.49046416 104.35748598 -7.4980011 98.15739441 C-7.49924329 97.13718709 -7.49924329 97.13718709 -7.50051057 96.09636951 C-7.51417409 84.77401253 -7.52390015 73.45165623 -7.53091145 62.12929291 C-7.53590095 54.54105853 -7.54576795 46.95285067 -7.55934143 39.364627 C-7.56676687 34.6697889 -7.57010937 29.9749545 -7.57230759 25.28011131 C-7.57418872 23.09549363 -7.57780753 20.91087669 -7.58324051 18.72626495 C-7.59039232 15.75887843 -7.59149718 12.79155131 -7.59101868 9.82415771 C-7.59461364 8.94852332 -7.5982086 8.07288893 -7.6019125 7.17072016 C-7.5892113 -0.11509748 -7.15694358 0.00971865 0 0 Z M-334.19624329 1148.21965027 C-340.84595021 1156.71396768 -345.95143921 1165.94288223 -349.47749329 1176.13371277 C-349.79718079 1177.04507996 -350.11686829 1177.95644714 -350.44624329 1178.89543152 C-356.51593747 1199.94265812 -353.09423909 1223.31941154 -342.73921204 1242.30949402 C-331.06286835 1262.61151303 -312.57332271 1276.77044471 -290.02827454 1283.10246277 C-268.72482882 1287.99252045 -246.11948007 1285.47153151 -227.19721985 1274.1290741 C-206.65211335 1261.21380099 -192.90430887 1242.5657945 -187.19624329 1218.94621277 C-182.96326093 1196.493002 -187.15113265 1174.51075169 -199.47749329 1155.13371277 C-202.29455319 1151.28772673 -205.29927645 1147.68482508 -208.47749329 1144.13371277 C-209.00600891 1143.51109558 -209.53452454 1142.88847839 -210.07905579 1142.24699402 C-223.73120799 1127.22962659 -244.9323537 1119.05177208 -264.78999329 1117.81730652 C-291.90179048 1116.76816177 -316.45432875 1127.77036566 -334.19624329 1148.21965027 Z " fill="#FFD242" transform="translate(1497.4774932861328,483.8662872314453)"/>
</svg>
