<?xml version="1.0" encoding="UTF-8"?> 
<svg version="1.1" xmlns="http://www.w3.org/2000/svg" width="1280" height="1280"> 
<path d="M0 0 C422 0 844.8 0 1280 0 C1280 422.4 1280 844.8 1280 1280 C857.6 1280 435.2 1280 0 1280 C0 857.6 0 435.2 0 0 Z " fill="#3178C6" transform="translate(0,0)"/> 
<path d="M0 0 C1.62163559 0.00040787 1.62163559 0.00040787 3.27603149 0.00082397 C29.91779314 0.03153565 56.62851595 0.62698571 82.9375 5.1875 C84.67580078 5.48116455 84.67580078 5.48116455 86.44921875 5.78076172 C107.15876825 9.33788758 127.54769829 13.87758498 146.9375 22.1875 C146.9375 61.4575 146.9375 100.7275 146.9375 141.1875 C142.65521949 139.4745878 139.05499089 137.4867827 135.1875 135.0625 C110.62421907 120.12857819 83.08738415 111.38542956 54.9375 106.1875 C53.61492187 105.92283936 53.61492187 105.92283936 52.265625 105.65283203 C37.89301883 102.83801068 23.34150637 102.85319003 8.75 102.75 C7.7734848 102.73769348 6.7969696 102.72538696 5.79086304 102.71270752 C-22.50643371 102.41508199 -51.21609667 108.09425047 -72.75 127.625 C-82.15607095 138.04794349 -86.48200628 148.30959498 -86.3359375 162.390625 C-85.12998736 179.13610406 -75.27347045 191.54813006 -63.0625 202.1875 C-39.83028345 221.70431033 -9.24505012 233.44247087 18.48205566 245.07119751 C47.84760405 257.3922786 76.95387245 270.56699109 102.9375 289.1875 C103.8351709 289.83066162 103.8351709 289.83066162 104.75097656 290.48681641 C112.87650381 296.37977802 120.30114221 302.92844407 127.54492188 309.86230469 C128.71816058 310.97877378 129.91157866 312.07398166 131.109375 313.1640625 C151.48347985 332.27530961 162.83223173 358.44523741 168.9375 385.1875 C169.10556152 385.91614258 169.27362305 386.64478516 169.44677734 387.39550781 C178.08206114 426.67933775 171.80392812 474.07081311 150.21630859 508.24609375 C140.6634714 522.74860642 129.71704949 535.550991 115.9375 546.1875 C115.08285156 546.89261719 114.22820312 547.59773438 113.34765625 548.32421875 C97.29727884 561.150704 78.20543453 569.47093362 58.9375 576.1875 C57.68984863 576.62400879 57.68984863 576.62400879 56.41699219 577.06933594 C31.81545205 585.48121978 5.66876126 588.35356193 -20.0625 591.1875 C-20.81983932 591.27566986 -21.57717865 591.36383972 -22.35746765 591.4546814 C-28.42702297 592.12304963 -34.40826075 592.33397475 -40.51171875 592.3203125 C-41.48623489 592.32126923 -42.46075104 592.32222595 -43.46479797 592.32321167 C-45.52121038 592.32388833 -47.57762498 592.32207015 -49.6340332 592.31787109 C-52.6968296 592.31259165 -55.75947418 592.31779418 -58.82226562 592.32421875 C-77.97863758 592.3328023 -97.05815956 591.92648017 -116.0625 589.375 C-117.42844806 589.19712172 -118.79441528 589.01939044 -120.16040039 588.84179688 C-149.43831031 584.97970649 -177.486363 578.91611314 -205 568 C-205.80993408 567.6793457 -206.61986816 567.35869141 -207.4543457 567.02832031 C-212.32098453 565.04586187 -216.40240362 562.85041222 -221.0625 560.1875 C-221.0625 518.2775 -221.0625 476.3675 -221.0625 433.1875 C-217.74519917 434.84615042 -215.17894118 436.58963467 -212.29370117 438.86791992 C-195.55404137 452.01640191 -176.70271632 462.98341047 -157.0625 471.1875 C-156.26473145 471.52297852 -155.46696289 471.85845703 -154.64501953 472.20410156 C-142.82250223 477.06878052 -130.70140303 480.5054086 -118.3125 483.5625 C-117.63733337 483.73194122 -116.96216675 483.90138245 -116.26654053 484.07595825 C-98.42367508 488.5115572 -80.7813914 489.60341133 -62.4375 489.5625 C-61.47304962 489.56162384 -60.50859924 489.56074768 -59.5149231 489.55984497 C-31.34648136 489.47558078 -0.47788871 486.24794509 21.1953125 466.05859375 C31.71996114 454.7552155 34.44393671 441.85837821 34.21484375 426.96875 C33.98580357 421.12537669 32.63596552 416.37361341 29.9375 411.1875 C29.525 410.36378906 29.1125 409.54007813 28.6875 408.69140625 C16.79469263 387.03433375 -7.11030006 373.61239184 -28.73608398 363.26196289 C-31.57022352 361.90412326 -34.40061315 360.53900436 -37.22827148 359.16772461 C-48.43910152 353.76453639 -59.80610376 348.84068752 -71.30029297 344.07449341 C-108.753268 328.51461281 -144.89835553 311.91025359 -175.0625 284.1875 C-175.61244629 283.68283203 -176.16239258 283.17816406 -176.72900391 282.65820312 C-198.50190042 262.41087749 -213.61508848 236.29853991 -220.0625 207.1875 C-220.25328125 206.37796875 -220.4440625 205.5684375 -220.640625 204.734375 C-223.20782701 193.07194302 -223.30244048 181.14291043 -223.3125 169.25 C-223.31351212 168.1647554 -223.31351212 168.1647554 -223.31454468 167.05758667 C-223.25163865 124.36673193 -208.40786456 87.48653576 -178.0625 57.1875 C-174.51529211 54.02165614 -170.82706305 51.08935069 -167.0625 48.1875 C-166.19625 47.48238281 -165.33 46.77726563 -164.4375 46.05078125 C-149.0568674 33.8817296 -131.27974358 25.22101611 -113.0625 18.1875 C-112.34126953 17.90712891 -111.62003906 17.62675781 -110.87695312 17.33789062 C-86.65476954 8.12663771 -60.7181132 3.92045222 -35.0625 1.1875 C-33.7163562 1.03172485 -33.7163562 1.03172485 -32.34301758 0.87280273 C-21.60478692 -0.2189416 -10.78090295 -0.01013349 0 0 Z " fill="#FEFEFE" transform="translate(984.0625,575.8125)"/> 
<path d="M0 0 C150.48 0 300.96 0 456 0 C456 34.65 456 69.3 456 105 C401.88 105 347.76 105 292 105 C292 259.11 292 413.22 292 572 C249.43 572 206.86 572 163 572 C163 417.89 163 263.78 163 105 C109.21 105 55.42 105 0 105 C0 70.35 0 35.7 0 0 Z " fill="#FEFEFE" transform="translate(256,576)"/> 
<path d="M0 0 C0.33 0 0.66 0 1 0 C1 12.54 1 25.08 1 38 C-11.54 38 -24.08 38 -37 38 C-34.05351148 36.52675574 -31.38330352 35.40533024 -28.3125 34.3125 C-16.71356419 29.68998293 -8.24568268 20.57448748 -3 9.41015625 C-1.71222037 6.30640612 -0.78113315 3.26655683 0 0 Z " fill="#000000" transform="translate(1279,1242)"/> 
<path d="M0 0 C1.47324426 2.94648852 2.59466976 5.61669648 3.6875 8.6875 C8.31001707 20.28643581 17.42551252 28.75431732 28.58984375 34 C31.69359388 35.28777963 34.73344317 36.21886685 38 37 C38 37.33 38 37.66 38 38 C25.46 38 12.92 38 0 38 C0 25.46 0 12.92 0 0 Z " fill="#000000" transform="translate(0,1242)"/>
<path d="M0 0 C12.54 0 25.08 0 38 0 C38 12.54 38 25.08 38 38 C36.52675574 35.05351148 35.40533024 32.38330352 34.3125 29.3125 C29.68998293 17.71356419 20.57448748 9.24568268 9.41015625 4 C6.30640612 2.71222037 3.26655683 1.78113315 0 1 C0 0.67 0 0.34 0 0 Z " fill="#000000" transform="translate(1242,0)"/> 
<path d="M0 0 C12.54 0 25.08 0 38 0 C35.05351148 1.47324426 32.38330352 2.59466976 29.3125 3.6875 C17.71356419 8.31001707 9.24568268 17.42551252 4 28.58984375 C2.71222037 31.69359388 1.78113315 34.73344317 1 38 C0.67 38 0.34 38 0 38 C0 25.46 0 12.92 0 0 Z " fill="#000000" transform="translate(0,0)"/> 
</svg>